<svg version="1.1" xmlns="http://www.w3.org/2000/svg" viewBox="0 0 1875.9107655748971 743.7702345098669" width="5627.732296724691" height="2231.3107035296007">
  <!-- svg-source:excalidraw -->
  
  <defs>
    <style class="style-fonts">
      @font-face {
        font-family: "Virgil";
        src: url("https://excalidraw.com/Virgil.woff2");
      }
      @font-face {
        font-family: "Cascadia";
        src: url("https://excalidraw.com/Cascadia.woff2");
      }
      @font-face {
        font-family: "Assistant";
        src: url("https://excalidraw.com/Assistant-Regular.woff2");
      }
    </style>
    
  </defs>
  <g stroke-linecap="round" transform="translate(44.13933551115122 352.4283502568383) rotate(0 90.3196222923579 54.99302376364045)"><path d="M27.5 0 C58.02 0, 88.54 0, 153.14 0 C171.47 0, 180.64 9.17, 180.64 27.5 C180.64 43.58, 180.64 59.67, 180.64 82.49 C180.64 100.82, 171.47 109.99, 153.14 109.99 C110.89 109.99, 68.64 109.99, 27.5 109.99 C9.17 109.99, 0 100.82, 0 82.49 C0 70.03, 0 57.57, 0 27.5 C0 9.17, 9.17 0, 27.5 0" stroke="none" stroke-width="0" fill="#fff5f5"></path><path d="M27.5 0 C52.84 0, 78.18 0, 153.14 0 M27.5 0 C56.69 0, 85.88 0, 153.14 0 M153.14 0 C171.47 0, 180.64 9.17, 180.64 27.5 M153.14 0 C171.47 0, 180.64 9.17, 180.64 27.5 M180.64 27.5 C180.64 40.76, 180.64 54.02, 180.64 82.49 M180.64 27.5 C180.64 48.63, 180.64 69.76, 180.64 82.49 M180.64 82.49 C180.64 100.82, 171.47 109.99, 153.14 109.99 M180.64 82.49 C180.64 100.82, 171.47 109.99, 153.14 109.99 M153.14 109.99 C103.3 109.99, 53.46 109.99, 27.5 109.99 M153.14 109.99 C123.84 109.99, 94.53 109.99, 27.5 109.99 M27.5 109.99 C9.17 109.99, 0 100.82, 0 82.49 M27.5 109.99 C9.17 109.99, 0 100.82, 0 82.49 M0 82.49 C0 63.86, 0 45.23, 0 27.5 M0 82.49 C0 69.52, 0 56.55, 0 27.5 M0 27.5 C0 9.17, 9.17 0, 27.5 0 M0 27.5 C0 9.17, 9.17 0, 27.5 0" stroke="#1e1e1e" stroke-width="4" fill="none"></path></g><g transform="translate(87.19821561600912 395.92137402047877) rotate(0 47.2607421875 11.5)"><text x="47.2607421875" y="0" font-family="Helvetica, Segoe UI Emoji" font-size="20px" fill="#1e1e1e" text-anchor="middle" style="white-space: pre;" direction="ltr" dominant-baseline="text-before-edge">homepage</text></g><g mask="url(#mask-TVB7ZaZB9RqeaMjE7Sl1S)" stroke-linecap="round"><g transform="translate(393.6988288032641 339.69755901193446) rotate(0 -76.83111165539987 23.700556928033592)"><path d="M0 0 C-25.61 7.9, -128.05 39.5, -153.66 47.4 M0 0 C-25.61 7.9, -128.05 39.5, -153.66 47.4" stroke="#1e1e1e" stroke-width="4" fill="none"></path></g><g transform="translate(393.6988288032641 339.69755901193446) rotate(0 -76.83111165539987 23.700556928033592)"><path d="M-133.73 32.31 C-140.26 37.25, -146.79 42.19, -153.66 47.4 M-133.73 32.31 C-140.92 37.75, -148.1 43.19, -153.66 47.4" stroke="#1e1e1e" stroke-width="4" fill="none"></path></g><g transform="translate(393.6988288032641 339.69755901193446) rotate(0 -76.83111165539987 23.700556928033592)"><path d="M-128.69 48.65 C-136.87 48.24, -145.05 47.83, -153.66 47.4 M-128.69 48.65 C-137.69 48.2, -146.69 47.75, -153.66 47.4" stroke="#1e1e1e" stroke-width="4" fill="none"></path></g></g><mask id="mask-TVB7ZaZB9RqeaMjE7Sl1S"><rect x="0" y="0" fill="#fff" width="647.3610521140638" height="487.09867286800164"></rect><rect x="297.96146714786437" y="351.8981159399681" fill="#000" width="37.8125" height="23" opacity="1"></rect></mask><g transform="translate(297.96146714786437 351.8981159399681) rotate(0 18.906249999999943 11.5)"><text x="18.90625" y="0" font-family="Helvetica, Segoe UI Emoji" font-size="20px" fill="#1e1e1e" text-anchor="middle" style="white-space: pre;" direction="ltr" dominant-baseline="text-before-edge">logo</text></g><g stroke-linecap="round" transform="translate(704.4344946367121 255.36863816486107) rotate(0 135.12729890192463 59.576545436920014)"><path d="M29.79 0 C82.84 0, 135.89 0, 240.47 0 C260.33 0, 270.25 9.93, 270.25 29.79 C270.25 48.61, 270.25 67.44, 270.25 89.36 C270.25 109.22, 260.33 119.15, 240.47 119.15 C175.96 119.15, 111.46 119.15, 29.79 119.15 C9.93 119.15, 0 109.22, 0 89.36 C0 76.16, 0 62.96, 0 29.79 C0 9.93, 9.93 0, 29.79 0" stroke="none" stroke-width="0" fill="#fff5f5"></path><path d="M29.79 0 C84.31 0, 138.83 0, 240.47 0 M29.79 0 C112.83 0, 195.87 0, 240.47 0 M240.47 0 C260.33 0, 270.25 9.93, 270.25 29.79 M240.47 0 C260.33 0, 270.25 9.93, 270.25 29.79 M270.25 29.79 C270.25 49.95, 270.25 70.1, 270.25 89.36 M270.25 29.79 C270.25 47.45, 270.25 65.11, 270.25 89.36 M270.25 89.36 C270.25 109.22, 260.33 119.15, 240.47 119.15 M270.25 89.36 C270.25 109.22, 260.33 119.15, 240.47 119.15 M240.47 119.15 C194.56 119.15, 148.66 119.15, 29.79 119.15 M240.47 119.15 C194.26 119.15, 148.06 119.15, 29.79 119.15 M29.79 119.15 C9.93 119.15, 0 109.22, 0 89.36 M29.79 119.15 C9.93 119.15, 0 109.22, 0 89.36 M0 89.36 C0 68.84, 0 48.31, 0 29.79 M0 89.36 C0 67.66, 0 45.95, 0 29.79 M0 29.79 C0 9.93, 9.93 0, 29.79 0 M0 29.79 C0 9.93, 9.93 0, 29.79 0" stroke="#1e1e1e" stroke-width="4" fill="none"></path></g><g transform="translate(773.9612076011367 303.4451836017811) rotate(0 65.6005859375 11.5)"><text x="65.6005859375" y="0" font-family="Helvetica, Segoe UI Emoji" font-size="20px" fill="#1e1e1e" text-anchor="middle" style="white-space: pre;" direction="ltr" dominant-baseline="text-before-edge">account_home</text></g><g mask="url(#mask-x0LkAjHi53lt-854Rwlks)" stroke-linecap="round"><g transform="translate(502.94582351752325 310.0114799648559) rotate(0 89.51205712548938 1.9743160059113052)"><path d="M0 0 C29.84 0.66, 149.19 3.29, 179.02 3.95 M0 0 C29.84 0.66, 149.19 3.29, 179.02 3.95" stroke="#1e1e1e" stroke-width="4" fill="none"></path></g><g transform="translate(502.94582351752325 310.0114799648559) rotate(0 89.51205712548938 1.9743160059113052)"><path d="M155.35 11.98 C162.6 9.52, 169.85 7.06, 179.02 3.95 M155.35 11.98 C160.28 10.31, 165.22 8.63, 179.02 3.95" stroke="#1e1e1e" stroke-width="4" fill="none"></path></g><g transform="translate(502.94582351752325 310.0114799648559) rotate(0 89.51205712548938 1.9743160059113052)"><path d="M155.73 -5.12 C162.86 -2.34, 170 0.44, 179.02 3.95 M155.73 -5.12 C160.58 -3.23, 165.44 -1.34, 179.02 3.95" stroke="#1e1e1e" stroke-width="4" fill="none"></path></g></g><mask id="mask-x0LkAjHi53lt-854Rwlks"><rect x="0" y="0" fill="#fff" width="781.969937768502" height="413.9601119766785"></rect><rect x="554.1131540805126" y="277.4857959707672" fill="#000" width="76.689453125" height="69" opacity="1"></rect></mask><g transform="translate(554.1131540805127 277.4857959707672) rotate(0 38.3447265625 34.5)"><text x="38.3447265625" y="0" font-family="Helvetica, Segoe UI Emoji" font-size="20px" fill="#1e1e1e" text-anchor="middle" style="white-space: pre;" direction="ltr" dominant-baseline="text-before-edge">accedi/</text><text x="38.3447265625" y="23" font-family="Helvetica, Segoe UI Emoji" font-size="20px" fill="#1e1e1e" text-anchor="middle" style="white-space: pre;" direction="ltr" dominant-baseline="text-before-edge">registrati</text><text x="38.3447265625" y="46" font-family="Helvetica, Segoe UI Emoji" font-size="20px" fill="#1e1e1e" text-anchor="middle" style="white-space: pre;" direction="ltr" dominant-baseline="text-before-edge">/utente</text></g><g stroke-linecap="round" transform="translate(364.58969590450073 466.07927424022125) rotate(0 100.525751156789 50.83206353429546)"><path d="M126.25 12.75 C138.55 19.08, 150.86 25.41, 175.8 38.25 C201.05 51, 201.05 51, 175.8 63.75 C162.79 70.36, 149.78 76.96, 126.25 88.91 C101 101.66, 101 101.66, 75.75 88.91 C56.91 79.53, 38.08 70.14, 25.25 63.75 C0 51, 0 51, 25.25 38.25 C38.91 31.35, 52.56 24.46, 75.75 12.75 C101 0, 101 0, 126.25 12.75" stroke="none" stroke-width="0" fill="#fff9db"></path><path d="M126.25 12.75 C137.84 18.72, 149.44 24.68, 175.8 38.25 M126.25 12.75 C145.8 22.81, 165.36 32.87, 175.8 38.25 M175.8 38.25 C201.05 51, 201.05 51, 175.8 63.75 M175.8 38.25 C201.05 51, 201.05 51, 175.8 63.75 M175.8 63.75 C157.42 73.08, 139.05 82.42, 126.25 88.91 M175.8 63.75 C156.18 73.71, 136.57 83.68, 126.25 88.91 M126.25 88.91 C101 101.66, 101 101.66, 75.75 88.91 M126.25 88.91 C101 101.66, 101 101.66, 75.75 88.91 M75.75 88.91 C63.97 83.04, 52.18 77.17, 25.25 63.75 M75.75 88.91 C59.05 80.59, 42.35 72.27, 25.25 63.75 M25.25 63.75 C0 51, 0 51, 25.25 38.25 M25.25 63.75 C0 51, 0 51, 25.25 38.25 M25.25 38.25 C42.06 29.76, 58.87 21.28, 75.75 12.75 M25.25 38.25 C38.3 31.66, 51.35 25.07, 75.75 12.75 M75.75 12.75 C101 0, 101 0, 126.25 12.75 M75.75 12.75 C101 0, 101 0, 126.25 12.75" stroke="#1e1e1e" stroke-width="4" fill="none"></path></g><g transform="translate(439.78128242039526 505.495306007369) rotate(0 25.5712890625 11.5)"><text x="25.5712890625" y="0" font-family="Helvetica, Segoe UI Emoji" font-size="20px" fill="#1e1e1e" text-anchor="middle" style="white-space: pre;" direction="ltr" dominant-baseline="text-before-edge">footer</text></g><g stroke-linecap="round" transform="translate(390.0126549084343 297.11900251811767) rotate(0 75.10279215285544 35)"><path d="M95 9 C108.25 15.59, 121.51 22.18, 131.21 27 C150.21 36, 150.21 36, 131.21 45 C118.83 50.47, 106.46 55.93, 95 61 C76 70, 76 70, 57 61 C46.33 56.51, 35.66 52.01, 19 45 C0 36, 0 36, 19 27 C32.92 20.41, 46.83 13.82, 57 9 C76 0, 76 0, 95 9" stroke="none" stroke-width="0" fill="#fff9db"></path><path d="M95 9 C107.67 15.3, 120.34 21.6, 131.21 27 M95 9 C106.61 14.77, 118.22 20.54, 131.21 27 M131.21 27 C150.21 36, 150.21 36, 131.21 45 M131.21 27 C150.21 36, 150.21 36, 131.21 45 M131.21 45 C120.18 49.87, 109.14 54.75, 95 61 M131.21 45 C120.91 49.55, 110.61 54.1, 95 61 M95 61 C76 70, 76 70, 57 61 M95 61 C76 70, 76 70, 57 61 M57 61 C42.18 54.76, 27.36 48.52, 19 45 M57 61 C47.21 56.88, 37.42 52.76, 19 45 M19 45 C0 36, 0 36, 19 27 M19 45 C0 36, 0 36, 19 27 M19 27 C27.83 22.82, 36.65 18.64, 57 9 M19 27 C27.38 23.03, 35.76 19.06, 57 9 M57 9 C76 0, 76 0, 95 9 M57 9 C76 0, 76 0, 95 9" stroke="#1e1e1e" stroke-width="4" fill="none"></path></g><g transform="translate(448.94100410986204 320.61900251811767) rotate(0 16.123046875 11.5)"><text x="16.123046875" y="0" font-family="Helvetica, Segoe UI Emoji" font-size="20px" fill="#1e1e1e" text-anchor="middle" style="white-space: pre;" direction="ltr" dominant-baseline="text-before-edge">nav</text></g><g mask="url(#mask-sxl5GoHRZ7a-pUjv3tvgM)" stroke-linecap="round"><g transform="translate(358.005956385645 516.5329094381416) rotate(0 -57.17904893179235 -40.53434835139436)"><path d="M0 0 C-19.06 -13.51, -95.3 -67.56, -114.36 -81.07 M0 0 C-19.06 -13.51, -95.3 -67.56, -114.36 -81.07" stroke="#1e1e1e" stroke-width="4" fill="none"></path></g><g transform="translate(358.005956385645 516.5329094381416) rotate(0 -57.17904893179235 -40.53434835139436)"><path d="M-90.25 -74.46 C-97.41 -76.42, -104.57 -78.39, -114.36 -81.07 M-90.25 -74.46 C-97.24 -76.38, -104.23 -78.29, -114.36 -81.07" stroke="#1e1e1e" stroke-width="4" fill="none"></path></g><g transform="translate(358.005956385645 516.5329094381416) rotate(0 -57.17904893179235 -40.53434835139436)"><path d="M-100.14 -60.51 C-104.36 -66.62, -108.59 -72.72, -114.36 -81.07 M-100.14 -60.51 C-104.26 -66.47, -108.39 -72.43, -114.36 -81.07" stroke="#1e1e1e" stroke-width="4" fill="none"></path></g></g><mask id="mask-sxl5GoHRZ7a-pUjv3tvgM"><rect x="0" y="0" fill="#fff" width="572.3640542492296" height="697.6016061409302"></rect><rect x="253.56616526635275" y="464.49856108674726" fill="#000" width="94.521484375" height="23" opacity="1"></rect></mask><g transform="translate(253.56616526635275 464.49856108674726) rotate(0 47.26074218749994 11.5)"><text x="47.2607421875" y="0" font-family="Helvetica, Segoe UI Emoji" font-size="20px" fill="#1e1e1e" text-anchor="middle" style="white-space: pre;" direction="ltr" dominant-baseline="text-before-edge">homepage</text></g><g mask="url(#mask-7IGNNi7Zngp6PBvJDsLUS)" stroke-linecap="round"><g transform="translate(526.1147763998054 483.8212512119737) rotate(0 81.48460403168292 -55.370490516517606)"><path d="M0 0 C27.16 -18.46, 135.81 -92.28, 162.97 -110.74 M0 0 C27.16 -18.46, 135.81 -92.28, 162.97 -110.74" stroke="#1e1e1e" stroke-width="4" fill="none"></path></g><g transform="translate(526.1147763998054 483.8212512119737) rotate(0 81.48460403168292 -55.370490516517606)"><path d="M148.34 -90.47 C153.37 -97.43, 158.39 -104.39, 162.97 -110.74 M148.34 -90.47 C151.29 -94.54, 154.23 -98.62, 162.97 -110.74" stroke="#1e1e1e" stroke-width="4" fill="none"></path></g><g transform="translate(526.1147763998054 483.8212512119737) rotate(0 81.48460403168292 -55.370490516517606)"><path d="M138.73 -104.61 C147.05 -106.71, 155.38 -108.82, 162.97 -110.74 M138.73 -104.61 C143.61 -105.84, 148.48 -107.08, 162.97 -110.74" stroke="#1e1e1e" stroke-width="4" fill="none"></path></g></g><mask id="mask-7IGNNi7Zngp6PBvJDsLUS"><rect x="0" y="0" fill="#fff" width="789.0839844631712" height="694.5622322450089"></rect><rect x="548.1316069939883" y="416.9507606954561" fill="#000" width="118.935546875" height="23" opacity="1"></rect></mask><g transform="translate(548.1316069939883 416.95076069545604) rotate(0 59.4677734375 11.5)"><text x="59.4677734375" y="0" font-family="Helvetica, Segoe UI Emoji" font-size="20px" fill="#1e1e1e" text-anchor="middle" style="white-space: pre;" direction="ltr" dominant-baseline="text-before-edge">i miei progetti</text></g><g stroke-linecap="round" transform="translate(708.8656171007035 449.82566766177547) rotate(0 130.69617643793305 67.08567011274124)"><path d="M32 0 C81.45 0, 130.91 0, 229.39 0 C250.73 0, 261.39 10.67, 261.39 32 C261.39 52.31, 261.39 72.63, 261.39 102.17 C261.39 123.5, 250.73 134.17, 229.39 134.17 C160.87 134.17, 92.35 134.17, 32 134.17 C10.67 134.17, 0 123.5, 0 102.17 C0 78.26, 0 54.36, 0 32 C0 10.67, 10.67 0, 32 0" stroke="none" stroke-width="0" fill="#fff5f5"></path><path d="M32 0 C105.57 0, 179.14 0, 229.39 0 M32 0 C92.59 0, 153.18 0, 229.39 0 M229.39 0 C250.73 0, 261.39 10.67, 261.39 32 M229.39 0 C250.73 0, 261.39 10.67, 261.39 32 M261.39 32 C261.39 58.59, 261.39 85.18, 261.39 102.17 M261.39 32 C261.39 60.01, 261.39 88.01, 261.39 102.17 M261.39 102.17 C261.39 123.5, 250.73 134.17, 229.39 134.17 M261.39 102.17 C261.39 123.5, 250.73 134.17, 229.39 134.17 M229.39 134.17 C152.94 134.17, 76.49 134.17, 32 134.17 M229.39 134.17 C166.41 134.17, 103.43 134.17, 32 134.17 M32 134.17 C10.67 134.17, 0 123.5, 0 102.17 M32 134.17 C10.67 134.17, 0 123.5, 0 102.17 M0 102.17 C0 81.09, 0 60.02, 0 32 M0 102.17 C0 75.59, 0 49.01, 0 32 M0 32 C0 10.67, 10.67 0, 32 0 M0 32 C0 10.67, 10.67 0, 32 0" stroke="#1e1e1e" stroke-width="4" fill="none"></path></g><g transform="translate(801.1975357261367 505.4113377745167) rotate(0 38.3642578125 11.5)"><text x="38.3642578125" y="0" font-family="Helvetica, Segoe UI Emoji" font-size="20px" fill="#1e1e1e" text-anchor="middle" style="white-space: pre;" direction="ltr" dominant-baseline="text-before-edge">about us</text></g><g stroke-linecap="round" transform="translate(717.6031717665423 641.7389611105673) rotate(0 121.9586217720942 42.360052945246196)"><path d="M21.18 0 C93.09 0, 165 0, 222.74 0 C236.86 0, 243.92 7.06, 243.92 21.18 C243.92 31.05, 243.92 40.91, 243.92 63.54 C243.92 77.66, 236.86 84.72, 222.74 84.72 C179.61 84.72, 136.49 84.72, 21.18 84.72 C7.06 84.72, 0 77.66, 0 63.54 C0 52.75, 0 41.96, 0 21.18 C0 7.06, 7.06 0, 21.18 0" stroke="none" stroke-width="0" fill="#fff5f5"></path><path d="M21.18 0 C96.9 0, 172.63 0, 222.74 0 M21.18 0 C76.43 0, 131.69 0, 222.74 0 M222.74 0 C236.86 0, 243.92 7.06, 243.92 21.18 M222.74 0 C236.86 0, 243.92 7.06, 243.92 21.18 M243.92 21.18 C243.92 36.13, 243.92 51.08, 243.92 63.54 M243.92 21.18 C243.92 34.44, 243.92 47.71, 243.92 63.54 M243.92 63.54 C243.92 77.66, 236.86 84.72, 222.74 84.72 M243.92 63.54 C243.92 77.66, 236.86 84.72, 222.74 84.72 M222.74 84.72 C170.22 84.72, 117.71 84.72, 21.18 84.72 M222.74 84.72 C169.52 84.72, 116.3 84.72, 21.18 84.72 M21.18 84.72 C7.06 84.72, 0 77.66, 0 63.54 M21.18 84.72 C7.06 84.72, 0 77.66, 0 63.54 M0 63.54 C0 54.93, 0 46.32, 0 21.18 M0 63.54 C0 52, 0 40.46, 0 21.18 M0 21.18 C0 7.06, 7.06 0, 21.18 0 M0 21.18 C0 7.06, 7.06 0, 21.18 0" stroke="#1e1e1e" stroke-width="4" fill="none"></path></g><g transform="translate(779.5227310386367 672.5990140558135) rotate(0 60.0390625 11.5)"><text x="60.0390625" y="0" font-family="Helvetica, Segoe UI Emoji" font-size="20px" fill="#1e1e1e" text-anchor="middle" style="white-space: pre;" direction="ltr" dominant-baseline="text-before-edge">release notes</text></g><g mask="url(#mask--XOBN-YWdISnIdCfB3Jq5)" stroke-linecap="round"><g transform="translate(575.2480952844028 513.6975475590942) rotate(0 63.02774225073813 0.9460730225506069)"><path d="M0 0 C21.01 0.32, 105.05 1.58, 126.06 1.89 M0 0 C21.01 0.32, 105.05 1.58, 126.06 1.89" stroke="#1e1e1e" stroke-width="4" fill="none"></path></g><g transform="translate(575.2480952844028 513.6975475590942) rotate(0 63.02774225073813 0.9460730225506069)"><path d="M102.44 10.09 C108.11 8.12, 113.77 6.15, 126.06 1.89 M102.44 10.09 C110.53 7.28, 118.61 4.47, 126.06 1.89" stroke="#1e1e1e" stroke-width="4" fill="none"></path></g><g transform="translate(575.2480952844028 513.6975475590942) rotate(0 63.02774225073813 0.9460730225506069)"><path d="M102.69 -7.01 C108.3 -4.87, 113.91 -2.74, 126.06 1.89 M102.69 -7.01 C110.69 -3.96, 118.7 -0.91, 126.06 1.89" stroke="#1e1e1e" stroke-width="4" fill="none"></path></g></g><mask id="mask--XOBN-YWdISnIdCfB3Jq5"><rect x="0" y="0" fill="#fff" width="801.303579785879" height="615.5896936041954"></rect><rect x="613.251423472641" y="491.6436205816449" fill="#000" width="50.048828125" height="46" opacity="1"></rect></mask><g transform="translate(613.2514234726409 491.64362058164477) rotate(0 25.0244140625 23)"><text x="25.0244140625" y="0" font-family="Helvetica, Segoe UI Emoji" font-size="20px" fill="#1e1e1e" text-anchor="middle" style="white-space: pre;" direction="ltr" dominant-baseline="text-before-edge">about</text><text x="25.0244140625" y="23" font-family="Helvetica, Segoe UI Emoji" font-size="20px" fill="#1e1e1e" text-anchor="middle" style="white-space: pre;" direction="ltr" dominant-baseline="text-before-edge">us</text></g><g mask="url(#mask-kbKWEGOYGAa_YBHtgmMh5)" stroke-linecap="round"><g transform="translate(537.1359458712936 543.6677518293682) rotate(0 83.85449117664649 68.29935104456473)"><path d="M0 0 C27.95 22.77, 139.76 113.83, 167.71 136.6 M0 0 C27.95 22.77, 139.76 113.83, 167.71 136.6" stroke="#1e1e1e" stroke-width="4" fill="none"></path></g><g transform="translate(537.1359458712936 543.6677518293682) rotate(0 83.85449117664649 68.29935104456473)"><path d="M144.09 128.39 C149.79 130.37, 155.48 132.35, 167.71 136.6 M144.09 128.39 C153.17 131.55, 162.24 134.7, 167.71 136.6" stroke="#1e1e1e" stroke-width="4" fill="none"></path></g><g transform="translate(537.1359458712936 543.6677518293682) rotate(0 83.85449117664649 68.29935104456473)"><path d="M154.89 115.13 C157.98 120.31, 161.07 125.48, 167.71 136.6 M154.89 115.13 C159.82 123.38, 164.74 131.63, 167.71 136.6" stroke="#1e1e1e" stroke-width="4" fill="none"></path></g></g><mask id="mask-kbKWEGOYGAa_YBHtgmMh5"><rect x="0" y="0" fill="#fff" width="804.8449282245866" height="780.2664539184976"></rect><rect x="588.1925854854401" y="588.9671028739328" fill="#000" width="65.595703125" height="46" opacity="1"></rect></mask><g transform="translate(588.1925854854401 588.967102873933) rotate(0 32.79785156250006 23)"><text x="32.7978515625" y="0" font-family="Helvetica, Segoe UI Emoji" font-size="20px" fill="#1e1e1e" text-anchor="middle" style="white-space: pre;" direction="ltr" dominant-baseline="text-before-edge">release</text><text x="32.7978515625" y="23" font-family="Helvetica, Segoe UI Emoji" font-size="20px" fill="#1e1e1e" text-anchor="middle" style="white-space: pre;" direction="ltr" dominant-baseline="text-before-edge">notes</text></g><g stroke-linecap="round" transform="translate(1204.5769367396358 251.00757442373256) rotate(0 133.50401641511576 63.758287376622405)"><path d="M31.88 0 C90.76 0, 149.65 0, 235.13 0 C256.38 0, 267.01 10.63, 267.01 31.88 C267.01 44.96, 267.01 58.03, 267.01 95.64 C267.01 116.89, 256.38 127.52, 235.13 127.52 C193.46 127.52, 151.79 127.52, 31.88 127.52 C10.63 127.52, 0 116.89, 0 95.64 C0 78.87, 0 62.1, 0 31.88 C0 10.63, 10.63 0, 31.88 0" stroke="none" stroke-width="0" fill="#fff5f5"></path><path d="M31.88 0 C79.22 0, 126.56 0, 235.13 0 M31.88 0 C85.49 0, 139.1 0, 235.13 0 M235.13 0 C256.38 0, 267.01 10.63, 267.01 31.88 M235.13 0 C256.38 0, 267.01 10.63, 267.01 31.88 M267.01 31.88 C267.01 56.52, 267.01 81.16, 267.01 95.64 M267.01 31.88 C267.01 49.86, 267.01 67.84, 267.01 95.64 M267.01 95.64 C267.01 116.89, 256.38 127.52, 235.13 127.52 M267.01 95.64 C267.01 116.89, 256.38 127.52, 235.13 127.52 M235.13 127.52 C176.98 127.52, 118.84 127.52, 31.88 127.52 M235.13 127.52 C178.21 127.52, 121.28 127.52, 31.88 127.52 M31.88 127.52 C10.63 127.52, 0 116.89, 0 95.64 M31.88 127.52 C10.63 127.52, 0 116.89, 0 95.64 M0 95.64 C0 71.72, 0 47.8, 0 31.88 M0 95.64 C0 78.25, 0 60.85, 0 31.88 M0 31.88 C0 10.63, 10.63 0, 31.88 0 M0 31.88 C0 10.63, 10.63 0, 31.88 0" stroke="#1e1e1e" stroke-width="4" fill="none"></path></g><g transform="translate(1277.4901328422516 303.26586180035497) rotate(0 60.5908203125 11.5)"><text x="60.5908203125" y="0" font-family="Helvetica, Segoe UI Emoji" font-size="20px" fill="#1e1e1e" text-anchor="middle" style="white-space: pre;" direction="ltr" dominant-baseline="text-before-edge">project_home</text></g><g mask="url(#mask-uxcZbHySEIPc96gtdgWjR)" stroke-linecap="round"><g transform="translate(972.6629768059929 303.6266794988793) rotate(0 107.72511358634699 -0.5465571912550047)"><path d="M0 0 C35.91 -0.18, 179.54 -0.91, 215.45 -1.09 M0 0 C35.91 -0.18, 179.54 -0.91, 215.45 -1.09" stroke="#1e1e1e" stroke-width="4" fill="none"></path></g><g transform="translate(972.6629768059929 303.6266794988793) rotate(0 107.72511358634699 -0.5465571912550047)"><path d="M192 7.58 C199.94 4.64, 207.87 1.71, 215.45 -1.09 M192 7.58 C198.95 5.01, 205.9 2.44, 215.45 -1.09" stroke="#1e1e1e" stroke-width="4" fill="none"></path></g><g transform="translate(972.6629768059929 303.6266794988793) rotate(0 107.72511358634699 -0.5465571912550047)"><path d="M191.91 -9.52 C199.88 -6.67, 207.84 -3.82, 215.45 -1.09 M191.91 -9.52 C198.89 -7.02, 205.87 -4.53, 215.45 -1.09" stroke="#1e1e1e" stroke-width="4" fill="none"></path></g></g><mask id="mask-uxcZbHySEIPc96gtdgWjR"><rect x="0" y="0" fill="#fff" width="1288.113203978687" height="404.7197938813893"></rect><rect x="1026.47207476734" y="291.58012230762426" fill="#000" width="107.83203125" height="23" opacity="1"></rect></mask><g transform="translate(1026.4720747673402 291.58012230762426) rotate(0 53.916015624999886 11.5)"><text x="53.916015625" y="0" font-family="Helvetica, Segoe UI Emoji" font-size="20px" fill="#1e1e1e" text-anchor="middle" style="white-space: pre;" direction="ltr" dominant-baseline="text-before-edge">lista progetti</text></g><g stroke-linecap="round" transform="translate(1008.9260030854452 636.3366231775242) rotate(0 75.58538964893364 47.76239087828924)"><path d="M151.17 47.76 C151.17 49.68, 150.99 51.61, 150.62 53.52 C150.25 55.42, 149.7 57.33, 148.97 59.19 C148.25 61.06, 147.34 62.9, 146.26 64.7 C145.18 66.49, 143.92 68.26, 142.51 69.96 C141.1 71.66, 139.52 73.32, 137.79 74.89 C136.07 76.47, 134.18 78, 132.16 79.43 C130.15 80.87, 127.98 82.24, 125.71 83.51 C123.43 84.79, 121.02 85.98, 118.52 87.07 C116.02 88.16, 113.4 89.16, 110.71 90.05 C108.02 90.95, 105.23 91.74, 102.39 92.42 C99.55 93.1, 96.62 93.68, 93.67 94.14 C90.73 94.6, 87.71 94.95, 84.7 95.18 C81.68 95.41, 78.62 95.52, 75.59 95.52 C72.55 95.52, 69.49 95.41, 66.47 95.18 C63.46 94.95, 60.45 94.6, 57.5 94.14 C54.55 93.68, 51.62 93.1, 48.78 92.42 C45.94 91.74, 43.15 90.95, 40.46 90.05 C37.77 89.16, 35.15 88.16, 32.65 87.07 C30.15 85.98, 27.74 84.79, 25.46 83.51 C23.19 82.24, 21.02 80.87, 19.01 79.43 C17 78, 15.11 76.47, 13.38 74.89 C11.65 73.32, 10.07 71.66, 8.66 69.96 C7.25 68.26, 5.99 66.49, 4.91 64.7 C3.83 62.9, 2.92 61.06, 2.2 59.19 C1.47 57.33, 0.92 55.42, 0.55 53.52 C0.19 51.61, 0 49.68, 0 47.76 C0 45.84, 0.19 43.91, 0.55 42.01 C0.92 40.1, 1.47 38.2, 2.2 36.33 C2.92 34.47, 3.83 32.62, 4.91 30.83 C5.99 29.03, 7.25 27.27, 8.66 25.57 C10.07 23.87, 11.65 22.21, 13.38 20.63 C15.11 19.05, 17 17.53, 19.01 16.09 C21.02 14.65, 23.19 13.28, 25.46 12.01 C27.74 10.74, 30.15 9.54, 32.65 8.45 C35.15 7.36, 37.77 6.36, 40.46 5.47 C43.15 4.58, 45.94 3.78, 48.78 3.1 C51.62 2.42, 54.55 1.85, 57.5 1.39 C60.45 0.93, 63.46 0.58, 66.47 0.35 C69.49 0.12, 72.55 0, 75.59 0 C78.62 0, 81.68 0.12, 84.7 0.35 C87.71 0.58, 90.73 0.93, 93.67 1.39 C96.62 1.85, 99.55 2.42, 102.39 3.1 C105.23 3.78, 108.02 4.58, 110.71 5.47 C113.4 6.36, 116.02 7.36, 118.52 8.45 C121.02 9.54, 123.43 10.74, 125.71 12.01 C127.98 13.28, 130.15 14.65, 132.16 16.09 C134.18 17.53, 136.07 19.05, 137.79 20.63 C139.52 22.21, 141.1 23.87, 142.51 25.57 C143.92 27.27, 145.18 29.03, 146.26 30.83 C147.34 32.62, 148.25 34.47, 148.97 36.33 C149.7 38.2, 150.25 40.1, 150.62 42.01 C150.99 43.91, 151.17 45.84, 151.17 47.76" stroke="none" stroke-width="0" fill="#e7f5ff"></path><path d="M151.17 47.76 C151.17 49.68, 150.99 51.61, 150.62 53.52 C150.25 55.42, 149.7 57.33, 148.97 59.19 C148.25 61.06, 147.34 62.9, 146.26 64.7 C145.18 66.49, 143.92 68.26, 142.51 69.96 C141.1 71.66, 139.52 73.32, 137.79 74.89 C136.07 76.47, 134.18 78, 132.16 79.43 C130.15 80.87, 127.98 82.24, 125.71 83.51 C123.43 84.79, 121.02 85.98, 118.52 87.07 C116.02 88.16, 113.4 89.16, 110.71 90.05 C108.02 90.95, 105.23 91.74, 102.39 92.42 C99.55 93.1, 96.62 93.68, 93.67 94.14 C90.73 94.6, 87.71 94.95, 84.7 95.18 C81.68 95.41, 78.62 95.52, 75.59 95.52 C72.55 95.52, 69.49 95.41, 66.47 95.18 C63.46 94.95, 60.45 94.6, 57.5 94.14 C54.55 93.68, 51.62 93.1, 48.78 92.42 C45.94 91.74, 43.15 90.95, 40.46 90.05 C37.77 89.16, 35.15 88.16, 32.65 87.07 C30.15 85.98, 27.74 84.79, 25.46 83.51 C23.19 82.24, 21.02 80.87, 19.01 79.43 C17 78, 15.11 76.47, 13.38 74.89 C11.65 73.32, 10.07 71.66, 8.66 69.96 C7.25 68.26, 5.99 66.49, 4.91 64.7 C3.83 62.9, 2.92 61.06, 2.2 59.19 C1.47 57.33, 0.92 55.42, 0.55 53.52 C0.19 51.61, 0 49.68, 0 47.76 C0 45.84, 0.19 43.91, 0.55 42.01 C0.92 40.1, 1.47 38.2, 2.2 36.33 C2.92 34.47, 3.83 32.62, 4.91 30.83 C5.99 29.03, 7.25 27.27, 8.66 25.57 C10.07 23.87, 11.65 22.21, 13.38 20.63 C15.11 19.05, 17 17.53, 19.01 16.09 C21.02 14.65, 23.19 13.28, 25.46 12.01 C27.74 10.74, 30.15 9.54, 32.65 8.45 C35.15 7.36, 37.77 6.36, 40.46 5.47 C43.15 4.58, 45.94 3.78, 48.78 3.1 C51.62 2.42, 54.55 1.85, 57.5 1.39 C60.45 0.93, 63.46 0.58, 66.47 0.35 C69.49 0.12, 72.55 0, 75.59 0 C78.62 0, 81.68 0.12, 84.7 0.35 C87.71 0.58, 90.73 0.93, 93.67 1.39 C96.62 1.85, 99.55 2.42, 102.39 3.1 C105.23 3.78, 108.02 4.58, 110.71 5.47 C113.4 6.36, 116.02 7.36, 118.52 8.45 C121.02 9.54, 123.43 10.74, 125.71 12.01 C127.98 13.28, 130.15 14.65, 132.16 16.09 C134.18 17.53, 136.07 19.05, 137.79 20.63 C139.52 22.21, 141.1 23.87, 142.51 25.57 C143.92 27.27, 145.18 29.03, 146.26 30.83 C147.34 32.62, 148.25 34.47, 148.97 36.33 C149.7 38.2, 150.25 40.1, 150.62 42.01 C150.99 43.91, 151.17 45.84, 151.17 47.76" stroke="#1e1e1e" stroke-width="4" fill="none"></path></g><g transform="translate(1047.3281230299904 661.3259035800927) rotate(0 37.236328125 23)"><text x="37.236328125" y="0" font-family="Helvetica, Segoe UI Emoji" font-size="20px" fill="#1e1e1e" text-anchor="middle" style="white-space: pre;" direction="ltr" dominant-baseline="text-before-edge">modifica</text><text x="37.236328125" y="23" font-family="Helvetica, Segoe UI Emoji" font-size="20px" fill="#1e1e1e" text-anchor="middle" style="white-space: pre;" direction="ltr" dominant-baseline="text-before-edge">progetto</text></g><g stroke-linecap="round" transform="translate(1255.4571389485143 634.8543966111984) rotate(0 82.62381420623728 49.24461744461519)"><path d="M165.25 49.24 C165.25 51.08, 165.07 52.93, 164.73 54.76 C164.38 56.58, 163.86 58.41, 163.18 60.2 C162.49 61.99, 161.63 63.77, 160.61 65.51 C159.59 67.24, 158.4 68.96, 157.07 70.61 C155.73 72.27, 154.22 73.89, 152.58 75.44 C150.94 77, 149.14 78.51, 147.22 79.95 C145.3 81.39, 143.23 82.77, 141.05 84.07 C138.87 85.37, 136.55 86.6, 134.14 87.75 C131.73 88.89, 129.19 89.96, 126.58 90.94 C123.97 91.92, 121.25 92.82, 118.47 93.61 C115.69 94.41, 112.82 95.12, 109.91 95.73 C107 96.33, 104.02 96.85, 101.01 97.25 C98 97.66, 94.94 97.97, 91.87 98.18 C88.81 98.39, 85.71 98.49, 82.62 98.49 C79.54 98.49, 76.44 98.39, 73.37 98.18 C70.31 97.97, 67.24 97.66, 64.24 97.25 C61.23 96.85, 58.25 96.33, 55.33 95.73 C52.42 95.12, 49.55 94.41, 46.77 93.61 C44 92.82, 41.28 91.92, 38.67 90.94 C36.05 89.96, 33.52 88.89, 31.11 87.75 C28.7 86.6, 26.38 85.37, 24.2 84.07 C22.02 82.77, 19.95 81.39, 18.03 79.95 C16.1 78.51, 14.3 77, 12.66 75.44 C11.02 73.89, 9.52 72.27, 8.18 70.61 C6.84 68.96, 5.66 67.24, 4.64 65.51 C3.62 63.77, 2.76 61.99, 2.07 60.2 C1.39 58.41, 0.86 56.58, 0.52 54.76 C0.17 52.93, 0 51.08, 0 49.24 C0 47.41, 0.17 45.56, 0.52 43.73 C0.86 41.9, 1.39 40.08, 2.07 38.29 C2.76 36.49, 3.62 34.71, 4.64 32.98 C5.66 31.25, 6.84 29.53, 8.18 27.88 C9.52 26.22, 11.02 24.6, 12.66 23.04 C14.3 21.49, 16.1 19.98, 18.03 18.54 C19.95 17.1, 22.02 15.72, 24.2 14.42 C26.38 13.12, 28.7 11.89, 31.11 10.74 C33.52 9.6, 36.05 8.53, 38.67 7.55 C41.28 6.57, 44 5.67, 46.77 4.88 C49.55 4.08, 52.42 3.37, 55.33 2.76 C58.25 2.16, 61.23 1.64, 64.24 1.23 C67.24 0.83, 70.31 0.52, 73.37 0.31 C76.44 0.1, 79.54 0, 82.62 0 C85.71 0, 88.81 0.1, 91.87 0.31 C94.94 0.52, 98 0.83, 101.01 1.23 C104.02 1.64, 107 2.16, 109.91 2.76 C112.82 3.37, 115.69 4.08, 118.47 4.88 C121.25 5.67, 123.97 6.57, 126.58 7.55 C129.19 8.53, 131.73 9.6, 134.14 10.74 C136.55 11.89, 138.87 13.12, 141.05 14.42 C143.23 15.72, 145.3 17.1, 147.22 18.54 C149.14 19.98, 150.94 21.49, 152.58 23.04 C154.22 24.6, 155.73 26.22, 157.07 27.88 C158.4 29.53, 159.59 31.25, 160.61 32.98 C161.63 34.71, 162.49 36.49, 163.18 38.29 C163.86 40.08, 164.38 41.9, 164.73 43.73 C165.07 45.56, 165.16 48.33, 165.25 49.24 C165.33 50.16, 165.33 48.33, 165.25 49.24" stroke="none" stroke-width="0" fill="#e7f5ff"></path><path d="M165.25 49.24 C165.25 51.08, 165.07 52.93, 164.73 54.76 C164.38 56.58, 163.86 58.41, 163.18 60.2 C162.49 61.99, 161.63 63.77, 160.61 65.51 C159.59 67.24, 158.4 68.96, 157.07 70.61 C155.73 72.27, 154.22 73.89, 152.58 75.44 C150.94 77, 149.14 78.51, 147.22 79.95 C145.3 81.39, 143.23 82.77, 141.05 84.07 C138.87 85.37, 136.55 86.6, 134.14 87.75 C131.73 88.89, 129.19 89.96, 126.58 90.94 C123.97 91.92, 121.25 92.82, 118.47 93.61 C115.69 94.41, 112.82 95.12, 109.91 95.73 C107 96.33, 104.02 96.85, 101.01 97.25 C98 97.66, 94.94 97.97, 91.87 98.18 C88.81 98.39, 85.71 98.49, 82.62 98.49 C79.54 98.49, 76.44 98.39, 73.37 98.18 C70.31 97.97, 67.24 97.66, 64.24 97.25 C61.23 96.85, 58.25 96.33, 55.33 95.73 C52.42 95.12, 49.55 94.41, 46.77 93.61 C44 92.82, 41.28 91.92, 38.67 90.94 C36.05 89.96, 33.52 88.89, 31.11 87.75 C28.7 86.6, 26.38 85.37, 24.2 84.07 C22.02 82.77, 19.95 81.39, 18.03 79.95 C16.1 78.51, 14.3 77, 12.66 75.44 C11.02 73.89, 9.52 72.27, 8.18 70.61 C6.84 68.96, 5.66 67.24, 4.64 65.51 C3.62 63.77, 2.76 61.99, 2.07 60.2 C1.39 58.41, 0.86 56.58, 0.52 54.76 C0.17 52.93, 0 51.08, 0 49.24 C0 47.41, 0.17 45.56, 0.52 43.73 C0.86 41.9, 1.39 40.08, 2.07 38.29 C2.76 36.49, 3.62 34.71, 4.64 32.98 C5.66 31.25, 6.84 29.53, 8.18 27.88 C9.52 26.22, 11.02 24.6, 12.66 23.04 C14.3 21.49, 16.1 19.98, 18.03 18.54 C19.95 17.1, 22.02 15.72, 24.2 14.42 C26.38 13.12, 28.7 11.89, 31.11 10.74 C33.52 9.6, 36.05 8.53, 38.67 7.55 C41.28 6.57, 44 5.67, 46.77 4.88 C49.55 4.08, 52.42 3.37, 55.33 2.76 C58.25 2.16, 61.23 1.64, 64.24 1.23 C67.24 0.83, 70.31 0.52, 73.37 0.31 C76.44 0.1, 79.54 0, 82.62 0 C85.71 0, 88.81 0.1, 91.87 0.31 C94.94 0.52, 98 0.83, 101.01 1.23 C104.02 1.64, 107 2.16, 109.91 2.76 C112.82 3.37, 115.69 4.08, 118.47 4.88 C121.25 5.67, 123.97 6.57, 126.58 7.55 C129.19 8.53, 131.73 9.6, 134.14 10.74 C136.55 11.89, 138.87 13.12, 141.05 14.42 C143.23 15.72, 145.3 17.1, 147.22 18.54 C149.14 19.98, 150.94 21.49, 152.58 23.04 C154.22 24.6, 155.73 26.22, 157.07 27.88 C158.4 29.53, 159.59 31.25, 160.61 32.98 C161.63 34.71, 162.49 36.49, 163.18 38.29 C163.86 40.08, 164.38 41.9, 164.73 43.73 C165.07 45.56, 165.16 48.33, 165.25 49.24 C165.33 50.16, 165.33 48.33, 165.25 49.24" stroke="#1e1e1e" stroke-width="4" fill="none"></path></g><g transform="translate(1299.2459610295239 672.7778111237888) rotate(0 38.9111328125 11.5)"><text x="38.9111328125" y="0" font-family="Helvetica, Segoe UI Emoji" font-size="20px" fill="#1e1e1e" text-anchor="middle" style="white-space: pre;" direction="ltr" dominant-baseline="text-before-edge">condividi</text></g><g stroke-linecap="round" transform="translate(986.4028161886322 460.1443526981235) rotate(0 98.1085765457467 56.766985076393155)"><path d="M196.22 56.77 C196.22 58.74, 196.04 60.73, 195.68 62.7 C195.32 64.67, 194.78 66.63, 194.07 68.57 C193.36 70.5, 192.47 72.43, 191.42 74.31 C190.36 76.19, 189.13 78.05, 187.74 79.86 C186.34 81.66, 184.78 83.44, 183.07 85.15 C181.36 86.86, 179.49 88.53, 177.48 90.13 C175.47 91.73, 173.3 93.28, 171.02 94.75 C168.73 96.22, 166.3 97.63, 163.76 98.95 C161.22 100.28, 158.54 101.53, 155.78 102.69 C153.01 103.86, 150.12 104.94, 147.16 105.93 C144.2 106.92, 141.14 107.82, 138.01 108.63 C134.89 109.43, 131.68 110.14, 128.43 110.76 C125.17 111.37, 121.85 111.88, 118.51 112.29 C115.16 112.7, 111.76 113.02, 108.36 113.22 C104.96 113.43, 101.53 113.53, 98.11 113.53 C94.69 113.53, 91.25 113.43, 87.85 113.22 C84.45 113.02, 81.05 112.7, 77.71 112.29 C74.37 111.88, 71.04 111.37, 67.79 110.76 C64.54 110.14, 61.33 109.43, 58.2 108.63 C55.08 107.82, 52.01 106.92, 49.05 105.93 C46.09 104.94, 43.21 103.86, 40.44 102.69 C37.68 101.53, 35 100.28, 32.46 98.95 C29.92 97.63, 27.49 96.22, 25.2 94.75 C22.91 93.28, 20.75 91.73, 18.74 90.13 C16.73 88.53, 14.85 86.86, 13.14 85.15 C11.43 83.44, 9.87 81.66, 8.48 79.86 C7.09 78.05, 5.86 76.19, 4.8 74.31 C3.75 72.43, 2.85 70.5, 2.14 68.57 C1.43 66.63, 0.89 64.67, 0.54 62.7 C0.18 60.73, 0 58.74, 0 56.77 C0 54.79, 0.18 52.8, 0.54 50.83 C0.89 48.87, 1.43 46.9, 2.14 44.96 C2.85 43.03, 3.75 41.11, 4.8 39.23 C5.86 37.34, 7.09 35.48, 8.48 33.68 C9.87 31.87, 11.43 30.1, 13.14 28.38 C14.85 26.67, 16.73 25, 18.74 23.4 C20.75 21.8, 22.91 20.25, 25.2 18.78 C27.49 17.31, 29.92 15.9, 32.46 14.58 C35 13.26, 37.68 12, 40.44 10.84 C43.21 9.68, 46.09 8.59, 49.05 7.61 C52.01 6.62, 55.08 5.71, 58.2 4.91 C61.33 4.1, 64.54 3.39, 67.79 2.78 C71.04 2.17, 74.37 1.65, 77.71 1.24 C81.05 0.83, 84.45 0.52, 87.85 0.31 C91.25 0.1, 94.69 0, 98.11 0 C101.53 0, 104.96 0.1, 108.36 0.31 C111.76 0.52, 115.16 0.83, 118.51 1.24 C121.85 1.65, 125.17 2.17, 128.43 2.78 C131.68 3.39, 134.89 4.1, 138.01 4.91 C141.14 5.71, 144.2 6.62, 147.16 7.61 C150.12 8.59, 153.01 9.68, 155.78 10.84 C158.54 12, 161.22 13.26, 163.76 14.58 C166.3 15.9, 168.73 17.31, 171.02 18.78 C173.3 20.25, 175.47 21.8, 177.48 23.4 C179.49 25, 181.36 26.67, 183.07 28.38 C184.78 30.1, 186.34 31.87, 187.74 33.68 C189.13 35.48, 190.36 37.34, 191.42 39.23 C192.47 41.11, 193.36 43.03, 194.07 44.96 C194.78 46.9, 195.32 48.87, 195.68 50.83 C196.04 52.8, 196.13 55.78, 196.22 56.77 C196.31 57.76, 196.31 55.78, 196.22 56.77" stroke="none" stroke-width="0" fill="#e7f5ff"></path><path d="M196.22 56.77 C196.22 58.74, 196.04 60.73, 195.68 62.7 C195.32 64.67, 194.78 66.63, 194.07 68.57 C193.36 70.5, 192.47 72.43, 191.42 74.31 C190.36 76.19, 189.13 78.05, 187.74 79.86 C186.34 81.66, 184.78 83.44, 183.07 85.15 C181.36 86.86, 179.49 88.53, 177.48 90.13 C175.47 91.73, 173.3 93.28, 171.02 94.75 C168.73 96.22, 166.3 97.63, 163.76 98.95 C161.22 100.28, 158.54 101.53, 155.78 102.69 C153.01 103.86, 150.12 104.94, 147.16 105.93 C144.2 106.92, 141.14 107.82, 138.01 108.63 C134.89 109.43, 131.68 110.14, 128.43 110.76 C125.17 111.37, 121.85 111.88, 118.51 112.29 C115.16 112.7, 111.76 113.02, 108.36 113.22 C104.96 113.43, 101.53 113.53, 98.11 113.53 C94.69 113.53, 91.25 113.43, 87.85 113.22 C84.45 113.02, 81.05 112.7, 77.71 112.29 C74.37 111.88, 71.04 111.37, 67.79 110.76 C64.54 110.14, 61.33 109.43, 58.2 108.63 C55.08 107.82, 52.01 106.92, 49.05 105.93 C46.09 104.94, 43.21 103.86, 40.44 102.69 C37.68 101.53, 35 100.28, 32.46 98.95 C29.92 97.63, 27.49 96.22, 25.2 94.75 C22.91 93.28, 20.75 91.73, 18.74 90.13 C16.73 88.53, 14.85 86.86, 13.14 85.15 C11.43 83.44, 9.87 81.66, 8.48 79.86 C7.09 78.05, 5.86 76.19, 4.8 74.31 C3.75 72.43, 2.85 70.5, 2.14 68.57 C1.43 66.63, 0.89 64.67, 0.54 62.7 C0.18 60.73, 0 58.74, 0 56.77 C0 54.79, 0.18 52.8, 0.54 50.83 C0.89 48.87, 1.43 46.9, 2.14 44.96 C2.85 43.03, 3.75 41.11, 4.8 39.23 C5.86 37.34, 7.09 35.48, 8.48 33.68 C9.87 31.87, 11.43 30.1, 13.14 28.38 C14.85 26.67, 16.73 25, 18.74 23.4 C20.75 21.8, 22.91 20.25, 25.2 18.78 C27.49 17.31, 29.92 15.9, 32.46 14.58 C35 13.26, 37.68 12, 40.44 10.84 C43.21 9.68, 46.09 8.59, 49.05 7.61 C52.01 6.62, 55.08 5.71, 58.2 4.91 C61.33 4.1, 64.54 3.39, 67.79 2.78 C71.04 2.17, 74.37 1.65, 77.71 1.24 C81.05 0.83, 84.45 0.52, 87.85 0.31 C91.25 0.1, 94.69 0, 98.11 0 C101.53 0, 104.96 0.1, 108.36 0.31 C111.76 0.52, 115.16 0.83, 118.51 1.24 C121.85 1.65, 125.17 2.17, 128.43 2.78 C131.68 3.39, 134.89 4.1, 138.01 4.91 C141.14 5.71, 144.2 6.62, 147.16 7.61 C150.12 8.59, 153.01 9.68, 155.78 10.84 C158.54 12, 161.22 13.26, 163.76 14.58 C166.3 15.9, 168.73 17.31, 171.02 18.78 C173.3 20.25, 175.47 21.8, 177.48 23.4 C179.49 25, 181.36 26.67, 183.07 28.38 C184.78 30.1, 186.34 31.87, 187.74 33.68 C189.13 35.48, 190.36 37.34, 191.42 39.23 C192.47 41.11, 193.36 43.03, 194.07 44.96 C194.78 46.9, 195.32 48.87, 195.68 50.83 C196.04 52.8, 196.13 55.78, 196.22 56.77 C196.31 57.76, 196.31 55.78, 196.22 56.77" stroke="#1e1e1e" stroke-width="4" fill="none"></path></g><g transform="translate(1036.278777966322 493.7710176794835) rotate(0 48.359375 22.999999999999993)"><text x="48.359375" y="0" font-family="Helvetica, Segoe UI Emoji" font-size="20px" fill="#1e1e1e" text-anchor="middle" style="white-space: pre;" direction="ltr" dominant-baseline="text-before-edge">modifica </text><text x="48.359375" y="23" font-family="Helvetica, Segoe UI Emoji" font-size="20px" fill="#1e1e1e" text-anchor="middle" style="white-space: pre;" direction="ltr" dominant-baseline="text-before-edge">transazioni</text></g><g stroke-linecap="round" transform="translate(1229.6646932096648 10.450691902318567) rotate(0 108.41625994508661 67.14249630890112)"><path d="M32 0 C69.9 0, 107.8 0, 184.83 0 C206.17 0, 216.83 10.67, 216.83 32 C216.83 49.27, 216.83 66.55, 216.83 102.28 C216.83 123.62, 206.17 134.28, 184.83 134.28 C147.95 134.28, 111.06 134.28, 32 134.28 C10.67 134.28, 0 123.62, 0 102.28 C0 76.55, 0 50.81, 0 32 C0 10.67, 10.67 0, 32 0" stroke="none" stroke-width="0" fill="#fff5f5"></path><path d="M32 0 C69.72 0, 107.43 0, 184.83 0 M32 0 C91.33 0, 150.65 0, 184.83 0 M184.83 0 C206.17 0, 216.83 10.67, 216.83 32 M184.83 0 C206.17 0, 216.83 10.67, 216.83 32 M216.83 32 C216.83 47.07, 216.83 62.14, 216.83 102.28 M216.83 32 C216.83 59.92, 216.83 87.85, 216.83 102.28 M216.83 102.28 C216.83 123.62, 206.17 134.28, 184.83 134.28 M216.83 102.28 C216.83 123.62, 206.17 134.28, 184.83 134.28 M184.83 134.28 C144.59 134.28, 104.35 134.28, 32 134.28 M184.83 134.28 C131.84 134.28, 78.84 134.28, 32 134.28 M32 134.28 C10.67 134.28, 0 123.62, 0 102.28 M32 134.28 C10.67 134.28, 0 123.62, 0 102.28 M0 102.28 C0 80.83, 0 59.37, 0 32 M0 102.28 C0 83.83, 0 65.38, 0 32 M0 32 C0 10.67, 10.67 0, 32 0 M0 32 C0 10.67, 10.67 0, 32 0" stroke="#1e1e1e" stroke-width="4" fill="none"></path></g><g transform="translate(1296.3719687797516 66.09318821121968) rotate(0 41.708984375 11.5)"><text x="41.708984375" y="0" font-family="Helvetica, Segoe UI Emoji" font-size="20px" fill="#1e1e1e" text-anchor="middle" style="white-space: pre;" direction="ltr" dominant-baseline="text-before-edge">tag_page</text></g><g mask="url(#mask-w8tupUxXOBwTxtIUeh65S)" stroke-linecap="round"><g transform="translate(1319.636260680469 233.16557175563048) rotate(0 -1.0944287432490682 -34.14827370093295)"><path d="M0 0 C-0.36 -11.38, -1.82 -56.91, -2.19 -68.3 M0 0 C-0.36 -11.38, -1.82 -56.91, -2.19 -68.3" stroke="#1e1e1e" stroke-width="4" fill="none"></path></g><g transform="translate(1319.636260680469 233.16557175563048) rotate(0 -1.0944287432490682 -34.14827370093295)"><path d="M7.11 -45.09 C4.09 -52.63, 1.07 -60.16, -2.19 -68.3 M7.11 -45.09 C4.6 -51.35, 2.09 -57.61, -2.19 -68.3" stroke="#1e1e1e" stroke-width="4" fill="none"></path></g><g transform="translate(1319.636260680469 233.16557175563048) rotate(0 -1.0944287432490682 -34.14827370093295)"><path d="M-9.98 -44.54 C-7.45 -52.26, -4.92 -59.97, -2.19 -68.3 M-9.98 -44.54 C-7.88 -50.95, -5.78 -57.36, -2.19 -68.3" stroke="#1e1e1e" stroke-width="4" fill="none"></path></g></g><mask id="mask-w8tupUxXOBwTxtIUeh65S"><rect x="0" y="0" fill="#fff" width="1421.825118166967" height="401.4621191574964"></rect><rect x="1255.7098006872195" y="187.51729805469753" fill="#000" width="125.6640625" height="23" opacity="1"></rect></mask><g transform="translate(1255.7098006872197 187.51729805469753) rotate(0 62.832031250000114 11.5)"><text x="62.83203125" y="0" font-family="Helvetica, Segoe UI Emoji" font-size="20px" fill="#1e1e1e" text-anchor="middle" style="white-space: pre;" direction="ltr" dominant-baseline="text-before-edge">pagina dei tag</text></g><g stroke-linecap="round" transform="translate(1644.7702981112823 255.2998788766149) rotate(0 110.57023373180743 59.46598292374006)"><path d="M29.73 0 C85.85 0, 141.97 0, 191.41 0 C211.23 0, 221.14 9.91, 221.14 29.73 C221.14 49.99, 221.14 70.25, 221.14 89.2 C221.14 109.02, 211.23 118.93, 191.41 118.93 C139.16 118.93, 86.92 118.93, 29.73 118.93 C9.91 118.93, 0 109.02, 0 89.2 C0 71.56, 0 53.92, 0 29.73 C0 9.91, 9.91 0, 29.73 0" stroke="none" stroke-width="0" fill="#fff5f5"></path><path d="M29.73 0 C90.99 0, 152.25 0, 191.41 0 M29.73 0 C94.26 0, 158.79 0, 191.41 0 M191.41 0 C211.23 0, 221.14 9.91, 221.14 29.73 M191.41 0 C211.23 0, 221.14 9.91, 221.14 29.73 M221.14 29.73 C221.14 52.76, 221.14 75.8, 221.14 89.2 M221.14 29.73 C221.14 48.71, 221.14 67.68, 221.14 89.2 M221.14 89.2 C221.14 109.02, 211.23 118.93, 191.41 118.93 M221.14 89.2 C221.14 109.02, 211.23 118.93, 191.41 118.93 M191.41 118.93 C142.85 118.93, 94.29 118.93, 29.73 118.93 M191.41 118.93 C130.16 118.93, 68.92 118.93, 29.73 118.93 M29.73 118.93 C9.91 118.93, 0 109.02, 0 89.2 M29.73 118.93 C9.91 118.93, 0 109.02, 0 89.2 M0 89.2 C0 74.3, 0 59.4, 0 29.73 M0 89.2 C0 76.96, 0 64.72, 0 29.73 M0 29.73 C0 9.91, 9.91 0, 29.73 0 M0 29.73 C0 9.91, 9.91 0, 29.73 0" stroke="#1e1e1e" stroke-width="4" fill="none"></path></g><g transform="translate(1698.6413130930898 303.26586180035497) rotate(0 56.699218750000114 11.5)"><text x="56.69921875" y="0" font-family="Helvetica, Segoe UI Emoji" font-size="20px" fill="#1e1e1e" text-anchor="middle" style="white-space: pre;" direction="ltr" dominant-baseline="text-before-edge">project_cake</text></g><g stroke-linecap="round"><g transform="translate(1482.8849579352361 314.5555516724812) rotate(0 71.65236967769408 -0.06790577076817783)"><path d="M0 0 C23.88 -0.02, 119.42 -0.11, 143.3 -0.14 M0 0 C23.88 -0.02, 119.42 -0.11, 143.3 -0.14" stroke="#1e1e1e" stroke-width="4" fill="none"></path></g><g transform="translate(1482.8849579352361 314.5555516724812) rotate(0 71.65236967769408 -0.06790577076817783)"><path d="M119.82 8.44 C128.11 5.41, 136.4 2.39, 143.3 -0.14 M119.82 8.44 C127.17 5.75, 134.53 3.07, 143.3 -0.14" stroke="#1e1e1e" stroke-width="4" fill="none"></path></g><g transform="translate(1482.8849579352361 314.5555516724812) rotate(0 71.65236967769408 -0.06790577076817783)"><path d="M119.8 -8.66 C128.1 -5.65, 136.39 -2.64, 143.3 -0.14 M119.8 -8.66 C127.16 -5.99, 134.52 -3.32, 143.3 -0.14" stroke="#1e1e1e" stroke-width="4" fill="none"></path></g></g><mask></mask><g stroke-linecap="round" transform="translate(1543.8846653816086 35.09318821121968) rotate(0 82.88647567617772 42.5)"><path d="M165.77 42.5 C165.77 44.21, 165.57 45.93, 165.17 47.62 C164.77 49.32, 164.16 51.01, 163.36 52.67 C162.57 54.33, 161.57 55.97, 160.39 57.57 C159.21 59.17, 157.83 60.74, 156.28 62.25 C154.73 63.76, 152.99 65.24, 151.1 66.64 C149.21 68.05, 147.14 69.4, 144.93 70.68 C142.72 71.96, 140.34 73.18, 137.85 74.31 C135.36 75.44, 132.71 76.51, 129.97 77.48 C127.23 78.45, 124.35 79.34, 121.41 80.13 C118.46 80.93, 115.39 81.63, 112.28 82.24 C109.16 82.84, 105.96 83.36, 102.72 83.77 C99.49 84.17, 96.18 84.48, 92.88 84.69 C89.57 84.9, 86.22 85, 82.89 85 C79.56 85, 76.2 84.9, 72.9 84.69 C69.59 84.48, 66.28 84.17, 63.05 83.77 C59.82 83.36, 56.61 82.84, 53.49 82.24 C50.38 81.63, 47.32 80.93, 44.37 80.13 C41.42 79.34, 38.54 78.45, 35.8 77.48 C33.06 76.51, 30.42 75.44, 27.92 74.31 C25.43 73.18, 23.05 71.96, 20.85 70.68 C18.64 69.4, 16.56 68.05, 14.67 66.64 C12.78 65.24, 11.04 63.76, 9.49 62.25 C7.95 60.74, 6.57 59.17, 5.39 57.57 C4.21 55.97, 3.21 54.33, 2.41 52.67 C1.61 51.01, 1.01 49.32, 0.6 47.62 C0.2 45.93, 0 44.21, 0 42.5 C0 40.79, 0.2 39.07, 0.6 37.38 C1.01 35.68, 1.61 33.99, 2.41 32.33 C3.21 30.67, 4.21 29.03, 5.39 27.43 C6.57 25.83, 7.95 24.26, 9.49 22.75 C11.04 21.24, 12.78 19.76, 14.67 18.36 C16.56 16.95, 18.64 15.6, 20.85 14.32 C23.05 13.04, 25.43 11.82, 27.92 10.69 C30.42 9.56, 33.06 8.49, 35.8 7.52 C38.54 6.55, 41.42 5.66, 44.37 4.87 C47.32 4.07, 50.38 3.37, 53.49 2.76 C56.61 2.16, 59.82 1.64, 63.05 1.23 C66.28 0.83, 69.59 0.52, 72.9 0.31 C76.2 0.1, 79.56 0, 82.89 0 C86.22 0, 89.57 0.1, 92.88 0.31 C96.18 0.52, 99.49 0.83, 102.72 1.23 C105.96 1.64, 109.16 2.16, 112.28 2.76 C115.39 3.37, 118.46 4.07, 121.41 4.87 C124.35 5.66, 127.23 6.55, 129.97 7.52 C132.71 8.49, 135.36 9.56, 137.85 10.69 C140.34 11.82, 142.72 13.04, 144.93 14.32 C147.14 15.6, 149.21 16.95, 151.1 18.36 C152.99 19.76, 154.73 21.24, 156.28 22.75 C157.83 24.26, 159.21 25.83, 160.39 27.43 C161.57 29.03, 162.57 30.67, 163.36 32.33 C164.16 33.99, 164.77 35.68, 165.17 37.38 C165.57 39.07, 165.77 40.79, 165.77 42.5" stroke="none" stroke-width="0" fill="#e7f5ff"></path><path d="M165.77 42.5 C165.77 44.21, 165.57 45.93, 165.17 47.62 C164.77 49.32, 164.16 51.01, 163.36 52.67 C162.57 54.33, 161.57 55.97, 160.39 57.57 C159.21 59.17, 157.83 60.74, 156.28 62.25 C154.73 63.76, 152.99 65.24, 151.1 66.64 C149.21 68.05, 147.14 69.4, 144.93 70.68 C142.72 71.96, 140.34 73.18, 137.85 74.31 C135.36 75.44, 132.71 76.51, 129.97 77.48 C127.23 78.45, 124.35 79.34, 121.41 80.13 C118.46 80.93, 115.39 81.63, 112.28 82.24 C109.16 82.84, 105.96 83.36, 102.72 83.77 C99.49 84.17, 96.18 84.48, 92.88 84.69 C89.57 84.9, 86.22 85, 82.89 85 C79.56 85, 76.2 84.9, 72.9 84.69 C69.59 84.48, 66.28 84.17, 63.05 83.77 C59.82 83.36, 56.61 82.84, 53.49 82.24 C50.38 81.63, 47.32 80.93, 44.37 80.13 C41.42 79.34, 38.54 78.45, 35.8 77.48 C33.06 76.51, 30.42 75.44, 27.92 74.31 C25.43 73.18, 23.05 71.96, 20.85 70.68 C18.64 69.4, 16.56 68.05, 14.67 66.64 C12.78 65.24, 11.04 63.76, 9.49 62.25 C7.95 60.74, 6.57 59.17, 5.39 57.57 C4.21 55.97, 3.21 54.33, 2.41 52.67 C1.61 51.01, 1.01 49.32, 0.6 47.62 C0.2 45.93, 0 44.21, 0 42.5 C0 40.79, 0.2 39.07, 0.6 37.38 C1.01 35.68, 1.61 33.99, 2.41 32.33 C3.21 30.67, 4.21 29.03, 5.39 27.43 C6.57 25.83, 7.95 24.26, 9.49 22.75 C11.04 21.24, 12.78 19.76, 14.67 18.36 C16.56 16.95, 18.64 15.6, 20.85 14.32 C23.05 13.04, 25.43 11.82, 27.92 10.69 C30.42 9.56, 33.06 8.49, 35.8 7.52 C38.54 6.55, 41.42 5.66, 44.37 4.87 C47.32 4.07, 50.38 3.37, 53.49 2.76 C56.61 2.16, 59.82 1.64, 63.05 1.23 C66.28 0.83, 69.59 0.52, 72.9 0.31 C76.2 0.1, 79.56 0, 82.89 0 C86.22 0, 89.57 0.1, 92.88 0.31 C96.18 0.52, 99.49 0.83, 102.72 1.23 C105.96 1.64, 109.16 2.16, 112.28 2.76 C115.39 3.37, 118.46 4.07, 121.41 4.87 C124.35 5.66, 127.23 6.55, 129.97 7.52 C132.71 8.49, 135.36 9.56, 137.85 10.69 C140.34 11.82, 142.72 13.04, 144.93 14.32 C147.14 15.6, 149.21 16.95, 151.1 18.36 C152.99 19.76, 154.73 21.24, 156.28 22.75 C157.83 24.26, 159.21 25.83, 160.39 27.43 C161.57 29.03, 162.57 30.67, 163.36 32.33 C164.16 33.99, 164.77 35.68, 165.17 37.38 C165.57 39.07, 165.77 40.79, 165.77 42.5" stroke="#1e1e1e" stroke-width="4" fill="none"></path></g><g transform="translate(1586.6469036010071 54.5411500107914) rotate(0 40.0146484375 23)"><text x="40.0146484375" y="0" font-family="Helvetica, Segoe UI Emoji" font-size="20px" fill="#1e1e1e" text-anchor="middle" style="white-space: pre;" direction="ltr" dominant-baseline="text-before-edge">modifica </text><text x="40.0146484375" y="23" font-family="Helvetica, Segoe UI Emoji" font-size="20px" fill="#1e1e1e" text-anchor="middle" style="white-space: pre;" direction="ltr" dominant-baseline="text-before-edge">tag</text></g><g stroke-linecap="round"><g transform="translate(1448.9289164491784 73.55662960562228) rotate(0 42.35766933546711 -0.11322585249300232)"><path d="M0 0 C14.12 -0.04, 70.6 -0.19, 84.72 -0.23 M0 0 C14.12 -0.04, 70.6 -0.19, 84.72 -0.23" stroke="#1e1e1e" stroke-width="4" fill="none"></path></g><g transform="translate(1448.9289164491784 73.55662960562228) rotate(0 42.35766933546711 -0.11322585249300232)"><path d="M61.25 8.39 C70.56 4.97, 79.87 1.55, 84.72 -0.23 M61.25 8.39 C66.72 6.38, 72.19 4.37, 84.72 -0.23" stroke="#1e1e1e" stroke-width="4" fill="none"></path></g><g transform="translate(1448.9289164491784 73.55662960562228) rotate(0 42.35766933546711 -0.11322585249300232)"><path d="M61.2 -8.71 C70.53 -5.35, 79.86 -1.98, 84.72 -0.23 M61.2 -8.71 C66.69 -6.73, 72.17 -4.75, 84.72 -0.23" stroke="#1e1e1e" stroke-width="4" fill="none"></path></g></g><mask></mask><g stroke-linecap="round" transform="translate(549.1011131640907 83.84773581639746) rotate(0 74.97853650594323 48.481805260221705)"><path d="M149.96 48.48 C149.96 50.43, 149.77 52.39, 149.41 54.33 C149.05 56.26, 148.5 58.19, 147.78 60.08 C147.06 61.98, 146.15 63.85, 145.08 65.67 C144.02 67.5, 142.77 69.29, 141.37 71.01 C139.97 72.74, 138.4 74.42, 136.68 76.02 C134.97 77.63, 133.1 79.17, 131.1 80.63 C129.1 82.09, 126.95 83.48, 124.7 84.77 C122.44 86.06, 120.05 87.27, 117.57 88.38 C115.09 89.49, 112.49 90.51, 109.82 91.41 C107.16 92.32, 104.38 93.12, 101.57 93.81 C98.75 94.5, 95.85 95.09, 92.92 95.55 C90 96.02, 87.01 96.38, 84.02 96.61 C81.03 96.84, 77.99 96.96, 74.98 96.96 C71.97 96.96, 68.93 96.84, 65.94 96.61 C62.95 96.38, 59.96 96.02, 57.03 95.55 C54.11 95.09, 51.21 94.5, 48.39 93.81 C45.57 93.12, 42.8 92.32, 40.13 91.41 C37.47 90.51, 34.87 89.49, 32.39 88.38 C29.91 87.27, 27.51 86.06, 25.26 84.77 C23 83.48, 20.85 82.09, 18.86 80.63 C16.86 79.17, 14.98 77.63, 13.27 76.02 C11.56 74.42, 9.99 72.74, 8.59 71.01 C7.19 69.29, 5.94 67.5, 4.87 65.67 C3.8 63.85, 2.9 61.98, 2.18 60.08 C1.46 58.19, 0.91 56.26, 0.55 54.33 C0.18 52.39, 0 50.43, 0 48.48 C0 46.53, 0.18 44.57, 0.55 42.64 C0.91 40.7, 1.46 38.77, 2.18 36.88 C2.9 34.99, 3.8 33.11, 4.87 31.29 C5.94 29.47, 7.19 27.68, 8.59 25.95 C9.99 24.23, 11.56 22.54, 13.27 20.94 C14.98 19.34, 16.86 17.79, 18.86 16.33 C20.85 14.87, 23 13.48, 25.26 12.19 C27.51 10.9, 29.91 9.69, 32.39 8.58 C34.87 7.48, 37.47 6.46, 40.13 5.55 C42.8 4.65, 45.57 3.84, 48.39 3.15 C51.21 2.46, 54.11 1.87, 57.03 1.41 C59.96 0.94, 62.95 0.59, 65.94 0.35 C68.93 0.12, 71.97 0, 74.98 0 C77.99 0, 81.03 0.12, 84.02 0.35 C87.01 0.59, 90 0.94, 92.92 1.41 C95.85 1.87, 98.75 2.46, 101.57 3.15 C104.38 3.84, 107.16 4.65, 109.82 5.55 C112.49 6.46, 115.09 7.48, 117.57 8.58 C120.05 9.69, 122.44 10.9, 124.7 12.19 C126.95 13.48, 129.1 14.87, 131.1 16.33 C133.1 17.79, 134.97 19.34, 136.68 20.94 C138.4 22.54, 139.97 24.23, 141.37 25.95 C142.77 27.68, 144.02 29.47, 145.08 31.29 C146.15 33.11, 147.06 34.99, 147.78 36.88 C148.5 38.77, 149.05 40.7, 149.41 42.64 C149.77 44.57, 149.96 46.53, 149.96 48.48" stroke="none" stroke-width="0" fill="#e7f5ff"></path><path d="M149.96 48.48 C149.96 50.43, 149.77 52.39, 149.41 54.33 C149.05 56.26, 148.5 58.19, 147.78 60.08 C147.06 61.98, 146.15 63.85, 145.08 65.67 C144.02 67.5, 142.77 69.29, 141.37 71.01 C139.97 72.74, 138.4 74.42, 136.68 76.02 C134.97 77.63, 133.1 79.17, 131.1 80.63 C129.1 82.09, 126.95 83.48, 124.7 84.77 C122.44 86.06, 120.05 87.27, 117.57 88.38 C115.09 89.49, 112.49 90.51, 109.82 91.41 C107.16 92.32, 104.38 93.12, 101.57 93.81 C98.75 94.5, 95.85 95.09, 92.92 95.55 C90 96.02, 87.01 96.38, 84.02 96.61 C81.03 96.84, 77.99 96.96, 74.98 96.96 C71.97 96.96, 68.93 96.84, 65.94 96.61 C62.95 96.38, 59.96 96.02, 57.03 95.55 C54.11 95.09, 51.21 94.5, 48.39 93.81 C45.57 93.12, 42.8 92.32, 40.13 91.41 C37.47 90.51, 34.87 89.49, 32.39 88.38 C29.91 87.27, 27.51 86.06, 25.26 84.77 C23 83.48, 20.85 82.09, 18.86 80.63 C16.86 79.17, 14.98 77.63, 13.27 76.02 C11.56 74.42, 9.99 72.74, 8.59 71.01 C7.19 69.29, 5.94 67.5, 4.87 65.67 C3.8 63.85, 2.9 61.98, 2.18 60.08 C1.46 58.19, 0.91 56.26, 0.55 54.33 C0.18 52.39, 0 50.43, 0 48.48 C0 46.53, 0.18 44.57, 0.55 42.64 C0.91 40.7, 1.46 38.77, 2.18 36.88 C2.9 34.99, 3.8 33.11, 4.87 31.29 C5.94 29.47, 7.19 27.68, 8.59 25.95 C9.99 24.23, 11.56 22.54, 13.27 20.94 C14.98 19.34, 16.86 17.79, 18.86 16.33 C20.85 14.87, 23 13.48, 25.26 12.19 C27.51 10.9, 29.91 9.69, 32.39 8.58 C34.87 7.48, 37.47 6.46, 40.13 5.55 C42.8 4.65, 45.57 3.84, 48.39 3.15 C51.21 2.46, 54.11 1.87, 57.03 1.41 C59.96 0.94, 62.95 0.59, 65.94 0.35 C68.93 0.12, 71.97 0, 74.98 0 C77.99 0, 81.03 0.12, 84.02 0.35 C87.01 0.59, 90 0.94, 92.92 1.41 C95.85 1.87, 98.75 2.46, 101.57 3.15 C104.38 3.84, 107.16 4.65, 109.82 5.55 C112.49 6.46, 115.09 7.48, 117.57 8.58 C120.05 9.69, 122.44 10.9, 124.7 12.19 C126.95 13.48, 129.1 14.87, 131.1 16.33 C133.1 17.79, 134.97 19.34, 136.68 20.94 C138.4 22.54, 139.97 24.23, 141.37 25.95 C142.77 27.68, 144.02 29.47, 145.08 31.29 C146.15 33.11, 147.06 34.99, 147.78 36.88 C148.5 38.77, 149.05 40.7, 149.41 42.64 C149.77 44.57, 149.96 46.53, 149.96 48.48" stroke="#1e1e1e" stroke-width="4" fill="none"></path></g><g transform="translate(584.0471696257384 109.54772781295077) rotate(0 40.0146484375 23)"><text x="40.0146484375" y="0" font-family="Helvetica, Segoe UI Emoji" font-size="20px" fill="#1e1e1e" text-anchor="middle" style="white-space: pre;" direction="ltr" dominant-baseline="text-before-edge">modifica </text><text x="40.0146484375" y="23" font-family="Helvetica, Segoe UI Emoji" font-size="20px" fill="#1e1e1e" text-anchor="middle" style="white-space: pre;" direction="ltr" dominant-baseline="text-before-edge">account</text></g><g stroke-linecap="round"><g transform="translate(722.0801869988472 238.67512044533999) rotate(0 -22.624921597630987 -32.0539449366278)"><path d="M0 0 C-7.54 -10.68, -37.71 -53.42, -45.25 -64.11 M0 0 C-7.54 -10.68, -37.71 -53.42, -45.25 -64.11" stroke="#1e1e1e" stroke-width="4" fill="none"></path></g><g transform="translate(722.0801869988472 238.67512044533999) rotate(0 -22.624921597630987 -32.0539449366278)"><path d="M-24.72 -49.85 C-29.19 -52.95, -33.66 -56.06, -45.25 -64.11 M-24.72 -49.85 C-29.22 -52.97, -33.72 -56.1, -45.25 -64.11" stroke="#1e1e1e" stroke-width="4" fill="none"></path></g><g transform="translate(722.0801869988472 238.67512044533999) rotate(0 -22.624921597630987 -32.0539449366278)"><path d="M-38.69 -39.98 C-40.12 -45.24, -41.55 -50.5, -45.25 -64.11 M-38.69 -39.98 C-40.13 -45.27, -41.57 -50.57, -45.25 -64.11" stroke="#1e1e1e" stroke-width="4" fill="none"></path></g></g><mask></mask><g stroke-linecap="round" transform="translate(1259.739572084722 474.25002413551573) rotate(0 78.34138107002957 42.66131363900095)"><path d="M156.68 42.66 C156.68 44.38, 156.49 46.1, 156.11 47.8 C155.73 49.51, 155.16 51.21, 154.41 52.87 C153.65 54.54, 152.71 56.19, 151.59 57.79 C150.48 59.39, 149.17 60.97, 147.71 62.49 C146.25 64, 144.6 65.49, 142.82 66.9 C141.03 68.31, 139.07 69.67, 136.98 70.95 C134.89 72.23, 132.65 73.46, 130.29 74.59 C127.94 75.73, 125.43 76.8, 122.84 77.77 C120.25 78.74, 117.54 79.64, 114.75 80.44 C111.96 81.23, 109.06 81.94, 106.12 82.55 C103.18 83.16, 100.15 83.67, 97.09 84.08 C94.03 84.49, 90.91 84.8, 87.78 85.01 C84.66 85.22, 81.49 85.32, 78.34 85.32 C75.19 85.32, 72.02 85.22, 68.9 85.01 C65.77 84.8, 62.65 84.49, 59.59 84.08 C56.54 83.67, 53.5 83.16, 50.56 82.55 C47.62 81.94, 44.72 81.23, 41.93 80.44 C39.15 79.64, 36.43 78.74, 33.84 77.77 C31.25 76.8, 28.75 75.73, 26.39 74.59 C24.04 73.46, 21.79 72.23, 19.7 70.95 C17.61 69.67, 15.66 68.31, 13.87 66.9 C12.08 65.49, 10.44 64, 8.97 62.49 C7.51 60.97, 6.21 59.39, 5.09 57.79 C3.97 56.19, 3.03 54.54, 2.28 52.87 C1.52 51.21, 0.95 49.51, 0.57 47.8 C0.19 46.1, 0 44.38, 0 42.66 C0 40.95, 0.19 39.22, 0.57 37.52 C0.95 35.82, 1.52 34.12, 2.28 32.45 C3.03 30.79, 3.97 29.14, 5.09 27.53 C6.21 25.93, 7.51 24.35, 8.97 22.84 C10.44 21.32, 12.08 19.84, 13.87 18.43 C15.66 17.02, 17.61 15.65, 19.7 14.37 C21.79 13.09, 24.04 11.87, 26.39 10.73 C28.75 9.59, 31.25 8.53, 33.84 7.55 C36.43 6.58, 39.15 5.68, 41.93 4.89 C44.72 4.09, 47.62 3.38, 50.56 2.77 C53.5 2.16, 56.54 1.65, 59.59 1.24 C62.65 0.83, 65.77 0.52, 68.9 0.31 C72.02 0.1, 75.19 0, 78.34 0 C81.49 0, 84.66 0.1, 87.78 0.31 C90.91 0.52, 94.03 0.83, 97.09 1.24 C100.15 1.65, 103.18 2.16, 106.12 2.77 C109.06 3.38, 111.96 4.09, 114.75 4.89 C117.54 5.68, 120.25 6.58, 122.84 7.55 C125.43 8.53, 127.94 9.59, 130.29 10.73 C132.65 11.87, 134.89 13.09, 136.98 14.37 C139.07 15.65, 141.03 17.02, 142.82 18.43 C144.6 19.84, 146.25 21.32, 147.71 22.84 C149.17 24.35, 150.48 25.93, 151.59 27.53 C152.71 29.14, 153.65 30.79, 154.41 32.45 C155.16 34.12, 155.73 35.82, 156.11 37.52 C156.49 39.22, 156.68 40.95, 156.68 42.66" stroke="none" stroke-width="0" fill="#e7f5ff"></path><path d="M156.68 42.66 C156.68 44.38, 156.49 46.1, 156.11 47.8 C155.73 49.51, 155.16 51.21, 154.41 52.87 C153.65 54.54, 152.71 56.19, 151.59 57.79 C150.48 59.39, 149.17 60.97, 147.71 62.49 C146.25 64, 144.6 65.49, 142.82 66.9 C141.03 68.31, 139.07 69.67, 136.98 70.95 C134.89 72.23, 132.65 73.46, 130.29 74.59 C127.94 75.73, 125.43 76.8, 122.84 77.77 C120.25 78.74, 117.54 79.64, 114.75 80.44 C111.96 81.23, 109.06 81.94, 106.12 82.55 C103.18 83.16, 100.15 83.67, 97.09 84.08 C94.03 84.49, 90.91 84.8, 87.78 85.01 C84.66 85.22, 81.49 85.32, 78.34 85.32 C75.19 85.32, 72.02 85.22, 68.9 85.01 C65.77 84.8, 62.65 84.49, 59.59 84.08 C56.54 83.67, 53.5 83.16, 50.56 82.55 C47.62 81.94, 44.72 81.23, 41.93 80.44 C39.15 79.64, 36.43 78.74, 33.84 77.77 C31.25 76.8, 28.75 75.73, 26.39 74.59 C24.04 73.46, 21.79 72.23, 19.7 70.95 C17.61 69.67, 15.66 68.31, 13.87 66.9 C12.08 65.49, 10.44 64, 8.97 62.49 C7.51 60.97, 6.21 59.39, 5.09 57.79 C3.97 56.19, 3.03 54.54, 2.28 52.87 C1.52 51.21, 0.95 49.51, 0.57 47.8 C0.19 46.1, 0 44.38, 0 42.66 C0 40.95, 0.19 39.22, 0.57 37.52 C0.95 35.82, 1.52 34.12, 2.28 32.45 C3.03 30.79, 3.97 29.14, 5.09 27.53 C6.21 25.93, 7.51 24.35, 8.97 22.84 C10.44 21.32, 12.08 19.84, 13.87 18.43 C15.66 17.02, 17.61 15.65, 19.7 14.37 C21.79 13.09, 24.04 11.87, 26.39 10.73 C28.75 9.59, 31.25 8.53, 33.84 7.55 C36.43 6.58, 39.15 5.68, 41.93 4.89 C44.72 4.09, 47.62 3.38, 50.56 2.77 C53.5 2.16, 56.54 1.65, 59.59 1.24 C62.65 0.83, 65.77 0.52, 68.9 0.31 C72.02 0.1, 75.19 0, 78.34 0 C81.49 0, 84.66 0.1, 87.78 0.31 C90.91 0.52, 94.03 0.83, 97.09 1.24 C100.15 1.65, 103.18 2.16, 106.12 2.77 C109.06 3.38, 111.96 4.09, 114.75 4.89 C117.54 5.68, 120.25 6.58, 122.84 7.55 C125.43 8.53, 127.94 9.59, 130.29 10.73 C132.65 11.87, 134.89 13.09, 136.98 14.37 C139.07 15.65, 141.03 17.02, 142.82 18.43 C144.6 19.84, 146.25 21.32, 147.71 22.84 C149.17 24.35, 150.48 25.93, 151.59 27.53 C152.71 29.14, 153.65 30.79, 154.41 32.45 C155.16 34.12, 155.73 35.82, 156.11 37.52 C156.49 39.22, 156.68 40.95, 156.68 42.66" stroke="#1e1e1e" stroke-width="4" fill="none"></path></g><g transform="translate(1312.0573016651144 505.2452336060529) rotate(0 26.1279296875 11.5)"><text x="26.1279296875" y="0" font-family="Helvetica, Segoe UI Emoji" font-size="20px" fill="#1e1e1e" text-anchor="middle" style="white-space: pre;" direction="ltr" dominant-baseline="text-before-edge">azioni</text></g><g stroke-linecap="round"><g transform="translate(1332.736044140318 392.24001597975484) rotate(0 -0.07313428651002596 33.75936500140302)"><path d="M0 0 C-0.02 11.25, -0.12 56.27, -0.15 67.52 M0 0 C-0.02 11.25, -0.12 56.27, -0.15 67.52" stroke="#1e1e1e" stroke-width="4" fill="none"></path></g><g transform="translate(1332.736044140318 392.24001597975484) rotate(0 -0.07313428651002596 33.75936500140302)"><path d="M-8.65 44.01 C-6.66 49.49, -4.68 54.98, -0.15 67.52 M-8.65 44.01 C-5.83 51.78, -3.02 59.56, -0.15 67.52" stroke="#1e1e1e" stroke-width="4" fill="none"></path></g><g transform="translate(1332.736044140318 392.24001597975484) rotate(0 -0.07313428651002596 33.75936500140302)"><path d="M8.46 44.04 C6.45 49.52, 4.44 55, -0.15 67.52 M8.46 44.04 C5.61 51.81, 2.77 59.57, -0.15 67.52" stroke="#1e1e1e" stroke-width="4" fill="none"></path></g></g><mask></mask><g stroke-linecap="round"><g transform="translate(1287.2005991154197 561.589510077052) rotate(0 -59.87465046513114 50.767595109149426)"><path d="M0 0 C-19.96 16.92, -99.79 84.61, -119.75 101.54 M0 0 C-19.96 16.92, -99.79 84.61, -119.75 101.54" stroke="#1e1e1e" stroke-width="4" fill="none"></path></g><g transform="translate(1287.2005991154197 561.589510077052) rotate(0 -59.87465046513114 50.767595109149426)"><path d="M-107.36 79.82 C-112.19 88.29, -117.02 96.76, -119.75 101.54 M-107.36 79.82 C-110.55 85.41, -113.74 91.01, -119.75 101.54" stroke="#1e1e1e" stroke-width="4" fill="none"></path></g><g transform="translate(1287.2005991154197 561.589510077052) rotate(0 -59.87465046513114 50.767595109149426)"><path d="M-96.3 92.86 C-105.44 96.25, -114.59 99.63, -119.75 101.54 M-96.3 92.86 C-102.34 95.1, -108.38 97.33, -119.75 101.54" stroke="#1e1e1e" stroke-width="4" fill="none"></path></g></g><mask></mask><g stroke-linecap="round"><g transform="translate(1335.178231354236 574.6997786536103) rotate(0 1.2560830612817426 25.31962611164184)"><path d="M0 0 C0.42 8.44, 2.09 42.2, 2.51 50.64 M0 0 C0.42 8.44, 2.09 42.2, 2.51 50.64" stroke="#1e1e1e" stroke-width="4" fill="none"></path></g><g transform="translate(1335.178231354236 574.6997786536103) rotate(0 1.2560830612817426 25.31962611164184)"><path d="M-7.19 27.6 C-5.11 32.54, -3.03 37.48, 2.51 50.64 M-7.19 27.6 C-3.34 36.75, 0.52 45.91, 2.51 50.64" stroke="#1e1e1e" stroke-width="4" fill="none"></path></g><g transform="translate(1335.178231354236 574.6997786536103) rotate(0 1.2560830612817426 25.31962611164184)"><path d="M9.89 26.75 C8.31 31.87, 6.72 37, 2.51 50.64 M9.89 26.75 C6.96 36.24, 4.03 45.73, 2.51 50.64" stroke="#1e1e1e" stroke-width="4" fill="none"></path></g></g><mask></mask><g stroke-linecap="round"><g transform="translate(1258.564229035651 518.1732504590034) rotate(0 -32.04563997729383 0.511689664449591)"><path d="M0 0 C-10.68 0.17, -53.41 0.85, -64.09 1.02 M0 0 C-10.68 0.17, -53.41 0.85, -64.09 1.02" stroke="#1e1e1e" stroke-width="4" fill="none"></path></g><g transform="translate(1258.564229035651 518.1732504590034) rotate(0 -32.04563997729383 0.511689664449591)"><path d="M-40.74 -7.9 C-46.8 -5.59, -52.86 -3.27, -64.09 1.02 M-40.74 -7.9 C-49.16 -4.68, -57.58 -1.46, -64.09 1.02" stroke="#1e1e1e" stroke-width="4" fill="none"></path></g><g transform="translate(1258.564229035651 518.1732504590034) rotate(0 -32.04563997729383 0.511689664449591)"><path d="M-40.47 9.2 C-46.6 7.08, -52.73 4.96, -64.09 1.02 M-40.47 9.2 C-48.99 6.25, -57.51 3.3, -64.09 1.02" stroke="#1e1e1e" stroke-width="4" fill="none"></path></g></g><mask></mask><g stroke-linecap="round"><g transform="translate(1627.0404884760064 352.9525146570016) rotate(0 -100.78611529221348 68.47366031396128)"><path d="M0 0 C-33.6 22.82, -167.98 114.12, -201.57 136.95 M0 0 C-33.6 22.82, -167.98 114.12, -201.57 136.95" stroke="#1e1e1e" stroke-width="4" fill="none"></path></g><g transform="translate(1627.0404884760064 352.9525146570016) rotate(0 -100.78611529221348 68.47366031396128)"><path d="M-186.95 116.67 C-192.61 124.53, -198.28 132.38, -201.57 136.95 M-186.95 116.67 C-191.61 123.14, -196.28 129.61, -201.57 136.95" stroke="#1e1e1e" stroke-width="4" fill="none"></path></g><g transform="translate(1627.0404884760064 352.9525146570016) rotate(0 -100.78611529221348 68.47366031396128)"><path d="M-177.34 130.82 C-186.72 133.19, -196.11 135.57, -201.57 136.95 M-177.34 130.82 C-185.07 132.77, -192.8 134.73, -201.57 136.95" stroke="#1e1e1e" stroke-width="4" fill="none"></path></g></g><mask></mask><g stroke-linecap="round"><g transform="translate(1421.4128772388967 551.9365568273231) rotate(0 53.19417419359638 44.726940722534295)"><path d="M0 0 C17.73 14.91, 88.66 74.54, 106.39 89.45 M0 0 C17.73 14.91, 88.66 74.54, 106.39 89.45" stroke="#1e1e1e" stroke-width="4" fill="none"></path></g><g transform="translate(1421.4128772388967 551.9365568273231) rotate(0 53.19417419359638 44.726940722534295)"><path d="M82.9 80.88 C89.02 83.11, 95.14 85.35, 106.39 89.45 M82.9 80.88 C89.11 83.14, 95.31 85.41, 106.39 89.45" stroke="#1e1e1e" stroke-width="4" fill="none"></path></g><g transform="translate(1421.4128772388967 551.9365568273231) rotate(0 53.19417419359638 44.726940722534295)"><path d="M93.91 67.79 C97.16 73.43, 100.41 79.08, 106.39 89.45 M93.91 67.79 C97.2 73.51, 100.5 79.23, 106.39 89.45" stroke="#1e1e1e" stroke-width="4" fill="none"></path></g></g><mask></mask><g stroke-linecap="round" transform="translate(1515.2411217832553 634.4277936017602) rotate(0 77.98551186544955 49.671220454053355)"><path d="M155.97 49.67 C155.97 51.67, 155.78 53.68, 155.4 55.66 C155.02 57.64, 154.45 59.62, 153.7 61.56 C152.96 63.5, 152.01 65.42, 150.9 67.28 C149.79 69.15, 148.49 70.99, 147.04 72.75 C145.58 74.52, 143.95 76.25, 142.17 77.89 C140.39 79.53, 138.44 81.12, 136.36 82.61 C134.28 84.1, 132.04 85.53, 129.7 86.85 C127.35 88.17, 124.87 89.42, 122.29 90.55 C119.71 91.68, 117 92.73, 114.23 93.65 C111.45 94.58, 108.57 95.41, 105.64 96.11 C102.71 96.82, 99.69 97.42, 96.65 97.9 C93.61 98.38, 90.5 98.74, 87.39 98.98 C84.28 99.22, 81.12 99.34, 77.99 99.34 C74.85 99.34, 71.7 99.22, 68.59 98.98 C65.47 98.74, 62.36 98.38, 59.32 97.9 C56.28 97.42, 53.26 96.82, 50.33 96.11 C47.4 95.41, 44.52 94.58, 41.74 93.65 C38.97 92.73, 36.26 91.68, 33.68 90.55 C31.11 89.42, 28.62 88.17, 26.27 86.85 C23.93 85.53, 21.69 84.1, 19.61 82.61 C17.53 81.12, 15.58 79.53, 13.8 77.89 C12.02 76.25, 10.39 74.52, 8.93 72.75 C7.48 70.99, 6.18 69.15, 5.07 67.28 C3.96 65.42, 3.02 63.5, 2.27 61.56 C1.52 59.62, 0.95 57.64, 0.57 55.66 C0.19 53.68, 0 51.67, 0 49.67 C0 47.68, 0.19 45.67, 0.57 43.68 C0.95 41.7, 1.52 39.72, 2.27 37.78 C3.02 35.85, 3.96 33.92, 5.07 32.06 C6.18 30.19, 7.48 28.35, 8.93 26.59 C10.39 24.82, 12.02 23.1, 13.8 21.45 C15.58 19.81, 17.53 18.23, 19.61 16.73 C21.69 15.24, 23.93 13.82, 26.27 12.49 C28.62 11.17, 31.11 9.93, 33.68 8.79 C36.26 7.66, 38.97 6.62, 41.74 5.69 C44.52 4.76, 47.4 3.94, 50.33 3.23 C53.26 2.52, 56.28 1.92, 59.32 1.44 C62.36 0.97, 65.47 0.6, 68.59 0.36 C71.7 0.12, 74.85 0, 77.99 0 C81.12 0, 84.28 0.12, 87.39 0.36 C90.5 0.6, 93.61 0.97, 96.65 1.44 C99.69 1.92, 102.71 2.52, 105.64 3.23 C108.57 3.94, 111.45 4.76, 114.23 5.69 C117 6.62, 119.71 7.66, 122.29 8.79 C124.87 9.93, 127.35 11.17, 129.7 12.49 C132.04 13.82, 134.28 15.24, 136.36 16.73 C138.44 18.23, 140.39 19.81, 142.17 21.45 C143.95 23.1, 145.58 24.82, 147.04 26.59 C148.49 28.35, 149.79 30.19, 150.9 32.06 C152.01 33.92, 152.96 35.85, 153.7 37.78 C154.45 39.72, 155.02 41.7, 155.4 43.68 C155.78 45.67, 155.97 47.68, 155.97 49.67" stroke="none" stroke-width="0" fill="#e7f5ff"></path><path d="M155.97 49.67 C155.97 51.67, 155.78 53.68, 155.4 55.66 C155.02 57.64, 154.45 59.62, 153.7 61.56 C152.96 63.5, 152.01 65.42, 150.9 67.28 C149.79 69.15, 148.49 70.99, 147.04 72.75 C145.58 74.52, 143.95 76.25, 142.17 77.89 C140.39 79.53, 138.44 81.12, 136.36 82.61 C134.28 84.1, 132.04 85.53, 129.7 86.85 C127.35 88.17, 124.87 89.42, 122.29 90.55 C119.71 91.68, 117 92.73, 114.23 93.65 C111.45 94.58, 108.57 95.41, 105.64 96.11 C102.71 96.82, 99.69 97.42, 96.65 97.9 C93.61 98.38, 90.5 98.74, 87.39 98.98 C84.28 99.22, 81.12 99.34, 77.99 99.34 C74.85 99.34, 71.7 99.22, 68.59 98.98 C65.47 98.74, 62.36 98.38, 59.32 97.9 C56.28 97.42, 53.26 96.82, 50.33 96.11 C47.4 95.41, 44.52 94.58, 41.74 93.65 C38.97 92.73, 36.26 91.68, 33.68 90.55 C31.11 89.42, 28.62 88.17, 26.27 86.85 C23.93 85.53, 21.69 84.1, 19.61 82.61 C17.53 81.12, 15.58 79.53, 13.8 77.89 C12.02 76.25, 10.39 74.52, 8.93 72.75 C7.48 70.99, 6.18 69.15, 5.07 67.28 C3.96 65.42, 3.02 63.5, 2.27 61.56 C1.52 59.62, 0.95 57.64, 0.57 55.66 C0.19 53.68, 0 51.67, 0 49.67 C0 47.68, 0.19 45.67, 0.57 43.68 C0.95 41.7, 1.52 39.72, 2.27 37.78 C3.02 35.85, 3.96 33.92, 5.07 32.06 C6.18 30.19, 7.48 28.35, 8.93 26.59 C10.39 24.82, 12.02 23.1, 13.8 21.45 C15.58 19.81, 17.53 18.23, 19.61 16.73 C21.69 15.24, 23.93 13.82, 26.27 12.49 C28.62 11.17, 31.11 9.93, 33.68 8.79 C36.26 7.66, 38.97 6.62, 41.74 5.69 C44.52 4.76, 47.4 3.94, 50.33 3.23 C53.26 2.52, 56.28 1.92, 59.32 1.44 C62.36 0.97, 65.47 0.6, 68.59 0.36 C71.7 0.12, 74.85 0, 77.99 0 C81.12 0, 84.28 0.12, 87.39 0.36 C90.5 0.6, 93.61 0.97, 96.65 1.44 C99.69 1.92, 102.71 2.52, 105.64 3.23 C108.57 3.94, 111.45 4.76, 114.23 5.69 C117 6.62, 119.71 7.66, 122.29 8.79 C124.87 9.93, 127.35 11.17, 129.7 12.49 C132.04 13.82, 134.28 15.24, 136.36 16.73 C138.44 18.23, 140.39 19.81, 142.17 21.45 C143.95 23.1, 145.58 24.82, 147.04 26.59 C148.49 28.35, 149.79 30.19, 150.9 32.06 C152.01 33.92, 152.96 35.85, 153.7 37.78 C154.45 39.72, 155.02 41.7, 155.4 43.68 C155.78 45.67, 155.97 47.68, 155.97 49.67" stroke="#1e1e1e" stroke-width="4" fill="none"></path></g><g transform="translate(1548.0532524993414 660.9761572429404) rotate(0 45.029296875 23)"><text x="45.029296875" y="0" font-family="Helvetica, Segoe UI Emoji" font-size="20px" fill="#1e1e1e" text-anchor="middle" style="white-space: pre;" direction="ltr" dominant-baseline="text-before-edge">seleziona </text><text x="45.029296875" y="23" font-family="Helvetica, Segoe UI Emoji" font-size="20px" fill="#1e1e1e" text-anchor="middle" style="white-space: pre;" direction="ltr" dominant-baseline="text-before-edge">tag</text></g><g stroke-linecap="round" transform="translate(969.079570645599 10) rotate(0 115.43182208878 67.59318821121971)"><path d="M32 0 C69.18 0, 106.37 0, 198.86 0 C220.2 0, 230.86 10.67, 230.86 32 C230.86 55.2, 230.86 78.4, 230.86 103.19 C230.86 124.52, 220.2 135.19, 198.86 135.19 C153.19 135.19, 107.51 135.19, 32 135.19 C10.67 135.19, 0 124.52, 0 103.19 C0 86.48, 0 69.78, 0 32 C0 10.67, 10.67 0, 32 0" stroke="none" stroke-width="0" fill="#fff5f5"></path><path d="M32 0 C93.88 0, 155.75 0, 198.86 0 M32 0 C94.43 0, 156.85 0, 198.86 0 M198.86 0 C220.2 0, 230.86 10.67, 230.86 32 M198.86 0 C220.2 0, 230.86 10.67, 230.86 32 M230.86 32 C230.86 49.49, 230.86 66.98, 230.86 103.19 M230.86 32 C230.86 56.11, 230.86 80.22, 230.86 103.19 M230.86 103.19 C230.86 124.52, 220.2 135.19, 198.86 135.19 M230.86 103.19 C230.86 124.52, 220.2 135.19, 198.86 135.19 M198.86 135.19 C162.49 135.19, 126.12 135.19, 32 135.19 M198.86 135.19 C139.5 135.19, 80.13 135.19, 32 135.19 M32 135.19 C10.67 135.19, 0 124.52, 0 103.19 M32 135.19 C10.67 135.19, 0 124.52, 0 103.19 M0 103.19 C0 75.36, 0 47.53, 0 32 M0 103.19 C0 80.12, 0 57.05, 0 32 M0 32 C0 10.67, 10.67 0, 32 0 M0 32 C0 10.67, 10.67 0, 32 0" stroke="#1e1e1e" stroke-width="4" fill="none"></path></g><g transform="translate(1018.3590489843789 66.09318821121974) rotate(0 66.15234375 11.5)"><text x="66.15234375" y="0" font-family="Helvetica, Segoe UI Emoji" font-size="20px" fill="#1e1e1e" text-anchor="middle" style="white-space: pre;" direction="ltr" dominant-baseline="text-before-edge">project_shared</text></g><g mask="url(#mask-YG1IfwcoETnGvhVWX48rE)" stroke-linecap="round"><g transform="translate(1153.338534015378 161.68039708669397) rotate(0 31.75431000399749 39.95285102447559)"><path d="M0 0 C10.58 13.32, 52.92 66.59, 63.51 79.91 M0 0 C10.58 13.32, 52.92 66.59, 63.51 79.91" stroke="#1e1e1e" stroke-width="4" fill="none"></path></g><g transform="translate(1153.338534015378 161.68039708669397) rotate(0 31.75431000399749 39.95285102447559)"><path d="M42.2 66.83 C48.18 70.5, 54.16 74.17, 63.51 79.91 M42.2 66.83 C48.79 70.88, 55.39 74.92, 63.51 79.91" stroke="#1e1e1e" stroke-width="4" fill="none"></path></g><g transform="translate(1153.338534015378 161.68039708669397) rotate(0 31.75431000399749 39.95285102447559)"><path d="M55.59 56.19 C57.81 62.85, 60.03 69.5, 63.51 79.91 M55.59 56.19 C58.04 63.53, 60.49 70.87, 63.51 79.91" stroke="#1e1e1e" stroke-width="4" fill="none"></path></g></g><mask id="mask-YG1IfwcoETnGvhVWX48rE"><rect x="0" y="0" fill="#fff" width="1316.847154023373" height="341.58609913564516"></rect><rect x="1143.9551487068754" y="190.13324811116956" fill="#000" width="82.275390625" height="23" opacity="1"></rect></mask><g transform="translate(1143.9551487068754 190.13324811116956) rotate(0 41.1376953125 11.5)"><text x="41.1376953125" y="0" font-family="Helvetica, Segoe UI Emoji" font-size="20px" fill="#1e1e1e" text-anchor="middle" style="white-space: pre;" direction="ltr" dominant-baseline="text-before-edge">partecipa</text></g><g stroke-linecap="round" transform="translate(757.06204964073 71.36085829151125) rotate(0 82.49974389790691 48.4153299276573)"><path d="M165 48.42 C165 50.22, 164.83 52.04, 164.48 53.84 C164.14 55.63, 163.62 57.43, 162.93 59.19 C162.25 60.95, 161.39 62.7, 160.37 64.41 C159.35 66.11, 158.17 67.79, 156.83 69.42 C155.49 71.05, 153.99 72.64, 152.35 74.17 C150.72 75.7, 148.92 77.19, 147 78.6 C145.08 80.01, 143.01 81.37, 140.84 82.65 C138.66 83.93, 136.34 85.14, 133.94 86.27 C131.53 87.39, 129 88.45, 126.39 89.41 C123.79 90.37, 121.07 91.25, 118.3 92.04 C115.52 92.82, 112.65 93.52, 109.75 94.11 C106.84 94.71, 103.86 95.21, 100.86 95.62 C97.86 96.02, 94.8 96.32, 91.74 96.53 C88.68 96.73, 85.58 96.83, 82.5 96.83 C79.42 96.83, 76.32 96.73, 73.26 96.53 C70.2 96.32, 67.14 96.02, 64.14 95.62 C61.14 95.21, 58.16 94.71, 55.25 94.11 C52.35 93.52, 49.48 92.82, 46.7 92.04 C43.93 91.25, 41.21 90.37, 38.61 89.41 C36 88.45, 33.47 87.39, 31.06 86.27 C28.65 85.14, 26.34 83.93, 24.16 82.65 C21.99 81.37, 19.92 80.01, 18 78.6 C16.08 77.19, 14.28 75.7, 12.65 74.17 C11.01 72.64, 9.51 71.05, 8.17 69.42 C6.83 67.79, 5.65 66.11, 4.63 64.41 C3.61 62.7, 2.75 60.95, 2.07 59.19 C1.38 57.43, 0.86 55.63, 0.52 53.84 C0.17 52.04, 0 50.22, 0 48.42 C0 46.61, 0.17 44.79, 0.52 42.99 C0.86 41.2, 1.38 39.4, 2.07 37.64 C2.75 35.88, 3.61 34.13, 4.63 32.42 C5.65 30.72, 6.83 29.04, 8.17 27.41 C9.51 25.78, 11.01 24.19, 12.65 22.66 C14.28 21.13, 16.08 19.64, 18 18.23 C19.92 16.82, 21.99 15.46, 24.16 14.18 C26.34 12.9, 28.65 11.69, 31.06 10.56 C33.47 9.44, 36 8.38, 38.61 7.42 C41.21 6.46, 43.93 5.58, 46.7 4.79 C49.48 4.01, 52.35 3.31, 55.25 2.72 C58.16 2.12, 61.14 1.62, 64.14 1.21 C67.14 0.81, 70.2 0.51, 73.26 0.3 C76.32 0.1, 79.42 0, 82.5 0 C85.58 0, 88.68 0.1, 91.74 0.3 C94.8 0.51, 97.86 0.81, 100.86 1.21 C103.86 1.62, 106.84 2.12, 109.75 2.72 C112.65 3.31, 115.52 4.01, 118.3 4.79 C121.07 5.58, 123.79 6.46, 126.39 7.42 C129 8.38, 131.53 9.44, 133.94 10.56 C136.34 11.69, 138.66 12.9, 140.84 14.18 C143.01 15.46, 145.08 16.82, 147 18.23 C148.92 19.64, 150.72 21.13, 152.35 22.66 C153.99 24.19, 155.49 25.78, 156.83 27.41 C158.17 29.04, 159.35 30.72, 160.37 32.42 C161.39 34.13, 162.25 35.88, 162.93 37.64 C163.62 39.4, 164.14 41.2, 164.48 42.99 C164.83 44.79, 164.91 47.51, 165 48.42 C165.09 49.32, 165.09 47.51, 165 48.42" stroke="none" stroke-width="0" fill="#e7f5ff"></path><path d="M165 48.42 C165 50.22, 164.83 52.04, 164.48 53.84 C164.14 55.63, 163.62 57.43, 162.93 59.19 C162.25 60.95, 161.39 62.7, 160.37 64.41 C159.35 66.11, 158.17 67.79, 156.83 69.42 C155.49 71.05, 153.99 72.64, 152.35 74.17 C150.72 75.7, 148.92 77.19, 147 78.6 C145.08 80.01, 143.01 81.37, 140.84 82.65 C138.66 83.93, 136.34 85.14, 133.94 86.27 C131.53 87.39, 129 88.45, 126.39 89.41 C123.79 90.37, 121.07 91.25, 118.3 92.04 C115.52 92.82, 112.65 93.52, 109.75 94.11 C106.84 94.71, 103.86 95.21, 100.86 95.62 C97.86 96.02, 94.8 96.32, 91.74 96.53 C88.68 96.73, 85.58 96.83, 82.5 96.83 C79.42 96.83, 76.32 96.73, 73.26 96.53 C70.2 96.32, 67.14 96.02, 64.14 95.62 C61.14 95.21, 58.16 94.71, 55.25 94.11 C52.35 93.52, 49.48 92.82, 46.7 92.04 C43.93 91.25, 41.21 90.37, 38.61 89.41 C36 88.45, 33.47 87.39, 31.06 86.27 C28.65 85.14, 26.34 83.93, 24.16 82.65 C21.99 81.37, 19.92 80.01, 18 78.6 C16.08 77.19, 14.28 75.7, 12.65 74.17 C11.01 72.64, 9.51 71.05, 8.17 69.42 C6.83 67.79, 5.65 66.11, 4.63 64.41 C3.61 62.7, 2.75 60.95, 2.07 59.19 C1.38 57.43, 0.86 55.63, 0.52 53.84 C0.17 52.04, 0 50.22, 0 48.42 C0 46.61, 0.17 44.79, 0.52 42.99 C0.86 41.2, 1.38 39.4, 2.07 37.64 C2.75 35.88, 3.61 34.13, 4.63 32.42 C5.65 30.72, 6.83 29.04, 8.17 27.41 C9.51 25.78, 11.01 24.19, 12.65 22.66 C14.28 21.13, 16.08 19.64, 18 18.23 C19.92 16.82, 21.99 15.46, 24.16 14.18 C26.34 12.9, 28.65 11.69, 31.06 10.56 C33.47 9.44, 36 8.38, 38.61 7.42 C41.21 6.46, 43.93 5.58, 46.7 4.79 C49.48 4.01, 52.35 3.31, 55.25 2.72 C58.16 2.12, 61.14 1.62, 64.14 1.21 C67.14 0.81, 70.2 0.51, 73.26 0.3 C76.32 0.1, 79.42 0, 82.5 0 C85.58 0, 88.68 0.1, 91.74 0.3 C94.8 0.51, 97.86 0.81, 100.86 1.21 C103.86 1.62, 106.84 2.12, 109.75 2.72 C112.65 3.31, 115.52 4.01, 118.3 4.79 C121.07 5.58, 123.79 6.46, 126.39 7.42 C129 8.38, 131.53 9.44, 133.94 10.56 C136.34 11.69, 138.66 12.9, 140.84 14.18 C143.01 15.46, 145.08 16.82, 147 18.23 C148.92 19.64, 150.72 21.13, 152.35 22.66 C153.99 24.19, 155.49 25.78, 156.83 27.41 C158.17 29.04, 159.35 30.72, 160.37 32.42 C161.39 34.13, 162.25 35.88, 162.93 37.64 C163.62 39.4, 164.14 41.2, 164.48 42.99 C164.83 44.79, 164.91 47.51, 165 48.42 C165.09 49.32, 165.09 47.51, 165 48.42" stroke="#1e1e1e" stroke-width="4" fill="none"></path></g><g transform="translate(803.0313292447734 96.54138011393809) rotate(0 36.6943359375 23)"><text x="36.6943359375" y="0" font-family="Helvetica, Segoe UI Emoji" font-size="20px" fill="#1e1e1e" text-anchor="middle" style="white-space: pre;" direction="ltr" dominant-baseline="text-before-edge">crea un </text><text x="36.6943359375" y="23" font-family="Helvetica, Segoe UI Emoji" font-size="20px" fill="#1e1e1e" text-anchor="middle" style="white-space: pre;" direction="ltr" dominant-baseline="text-before-edge">progetto</text></g><g stroke-linecap="round"><g transform="translate(824.347545195159 246.77602439468978) rotate(0 0.03364284738177048 -35.468776671845035)"><path d="M0 0 C0.01 -11.82, 0.06 -59.11, 0.07 -70.94 M0 0 C0.01 -11.82, 0.06 -59.11, 0.07 -70.94" stroke="#1e1e1e" stroke-width="4" fill="none"></path></g><g transform="translate(824.347545195159 246.77602439468978) rotate(0 0.03364284738177048 -35.468776671845035)"><path d="M8.6 -47.44 C5.94 -54.76, 3.28 -62.08, 0.07 -70.94 M8.6 -47.44 C6.01 -54.55, 3.43 -61.66, 0.07 -70.94" stroke="#1e1e1e" stroke-width="4" fill="none"></path></g><g transform="translate(824.347545195159 246.77602439468978) rotate(0 0.03364284738177048 -35.468776671845035)"><path d="M-8.51 -47.45 C-5.83 -54.77, -3.16 -62.09, 0.07 -70.94 M-8.51 -47.45 C-5.91 -54.56, -3.32 -61.67, 0.07 -70.94" stroke="#1e1e1e" stroke-width="4" fill="none"></path></g></g><mask></mask><g stroke-linecap="round" transform="translate(10 14.76672420158377) rotate(0 124.45895780350915 62.82646400963591)"><path d="M31.41 0 C99.19 0, 166.96 0, 217.5 0 C238.45 0, 248.92 10.47, 248.92 31.41 C248.92 45.73, 248.92 60.05, 248.92 94.24 C248.92 115.18, 238.45 125.65, 217.5 125.65 C164.01 125.65, 110.51 125.65, 31.41 125.65 C10.47 125.65, 0 115.18, 0 94.24 C0 80.14, 0 66.03, 0 31.41 C0 10.47, 10.47 0, 31.41 0" stroke="none" stroke-width="0" fill="#fff5f5"></path><path d="M31.41 0 C94.21 0, 157.01 0, 217.5 0 M31.41 0 C93.76 0, 156.1 0, 217.5 0 M217.5 0 C238.45 0, 248.92 10.47, 248.92 31.41 M217.5 0 C238.45 0, 248.92 10.47, 248.92 31.41 M248.92 31.41 C248.92 45.48, 248.92 59.54, 248.92 94.24 M248.92 31.41 C248.92 44.98, 248.92 58.56, 248.92 94.24 M248.92 94.24 C248.92 115.18, 238.45 125.65, 217.5 125.65 M248.92 94.24 C248.92 115.18, 238.45 125.65, 217.5 125.65 M217.5 125.65 C165.88 125.65, 114.26 125.65, 31.41 125.65 M217.5 125.65 C159.74 125.65, 101.97 125.65, 31.41 125.65 M31.41 125.65 C10.47 125.65, 0 115.18, 0 94.24 M31.41 125.65 C10.47 125.65, 0 115.18, 0 94.24 M0 94.24 C0 81.49, 0 68.75, 0 31.41 M0 94.24 C0 70.99, 0 47.75, 0 31.41 M0 31.41 C0 10.47, 10.47 0, 31.41 0 M0 31.41 C0 10.47, 10.47 0, 31.41 0" stroke="#1e1e1e" stroke-width="4" fill="none"></path></g><g transform="translate(36.04098905350912 66.09318821121968) rotate(0 98.41796875 11.5)"><text x="98.41796875" y="0" font-family="Helvetica, Segoe UI Emoji" font-size="20px" fill="#1e1e1e" text-anchor="middle" style="white-space: pre;" direction="ltr" dominant-baseline="text-before-edge">page_not_found (404)</text></g></svg>